<svg width="35" height="35" viewBox="0 0 35 35" fill="none" xmlns="http://www.w3.org/2000/svg">
<g clip-path="url(#clip0_146_2216)">
<path d="M32.0833 18.4724C31.9554 18.4732 31.8285 18.4487 31.7101 18.4003C31.5916 18.3519 31.4839 18.2806 31.393 18.1905L17.5 4.28772L3.60693 18.1905C3.42094 18.3498 3.1817 18.433 2.93702 18.4235C2.69233 18.4141 2.46022 18.3127 2.28708 18.1395C2.11393 17.9664 2.0125 17.7343 2.00304 17.4896C1.99359 17.2449 2.07682 17.0056 2.2361 16.8197L16.8194 2.23633C17.0016 2.05525 17.248 1.95361 17.5048 1.95361C17.7617 1.95361 18.0081 2.05525 18.1903 2.23633L32.7736 16.8197C32.9074 16.9561 32.998 17.129 33.034 17.3167C33.0701 17.5044 33.0501 17.6986 32.9764 17.8749C32.9028 18.0513 32.7788 18.202 32.6199 18.3083C32.4611 18.4145 32.2744 18.4717 32.0833 18.4724Z" fill="#0B2C3D"/>
<path d="M14.5833 22.3335H13.5833V23.3335V32.0557H7.77776C7.52727 32.0557 7.28705 31.9562 7.10993 31.7791C6.93282 31.6019 6.83331 31.3617 6.83331 31.1112V19.6925L17.502 8.98823L28.1666 19.6262V31.1112C28.1666 31.3617 28.0671 31.6019 27.89 31.7791C27.7129 31.9562 27.4727 32.0557 27.2222 32.0557H21.4166V23.3335V22.3335H20.4166H14.5833Z" stroke="#0B2C3D" stroke-width="2"/>
</g>
<defs>
<clipPath id="clip0_146_2216">
<rect width="35" height="35" fill="white"/>
</clipPath>
</defs>
</svg>
