<svg width="31" height="31" viewBox="0 0 31 31" fill="none" xmlns="http://www.w3.org/2000/svg">
<path d="M12.0884 22.7206L12.0068 23.2913H12.5833H18.4167H18.9932L18.9116 22.7206L18.0527 16.7135C19.4379 15.8582 20.375 14.3395 20.375 12.583C20.375 9.89187 18.1911 7.70801 15.5 7.70801C12.8089 7.70801 10.625 9.89187 10.625 12.583C10.625 14.3395 11.5621 15.8582 12.9473 16.7135L12.0884 22.7206Z" fill="#0B2C3D" stroke="#0B2C3D"/>
<path d="M15.5 30.0832C7.45871 30.0832 0.916626 23.5411 0.916626 15.4998C0.916626 7.45859 7.45871 0.916504 15.5 0.916504C23.5412 0.916504 30.0833 7.45859 30.0833 15.4998C30.0833 23.5411 23.5412 30.0832 15.5 30.0832ZM15.5 3.83317C9.06725 3.83317 3.83329 9.06713 3.83329 15.4998C3.83329 21.9325 9.06725 27.1665 15.5 27.1665C21.9327 27.1665 27.1666 21.9325 27.1666 15.4998C27.1666 9.06713 21.9327 3.83317 15.5 3.83317Z" fill="#0B2C3D"/>
</svg>
