<svg width="20" height="21" viewBox="0 0 20 21" fill="none" xmlns="http://www.w3.org/2000/svg">
<path d="M9.99992 2.16992C5.3993 2.16992 1.66992 5.8993 1.66992 10.4999C1.66992 15.1005 5.39992 18.8299 9.99992 18.8299C14.6005 18.8299 18.3299 15.1005 18.3299 10.4999C18.3299 5.8993 14.6005 2.16992 9.99992 2.16992ZM9.99992 18.1637C5.7743 18.1637 2.33617 14.7255 2.33617 10.4999C2.33617 6.2743 5.77367 2.83617 9.99992 2.83617C14.2255 2.83617 17.6637 6.2743 17.6637 10.4999C17.6637 14.7255 14.2262 18.1637 9.99992 18.1637Z" fill="#0B2C3D"/>
<path d="M14.1673 7.52631L8.81793 12.7132L6.94418 10.8394C6.74918 10.6444 6.43293 10.6444 6.2373 10.8394C6.04168 11.0344 6.0423 11.3507 6.2373 11.5463L8.45918 13.7682C8.55668 13.8657 8.6848 13.9144 8.8123 13.9144C8.9373 13.9144 9.06293 13.8676 9.1598 13.7738L14.8623 8.24381C15.0604 8.05131 15.0654 7.73506 14.8736 7.53693C14.6804 7.33818 14.3648 7.33381 14.1667 7.52568L14.1673 7.52631Z" fill="#0B2C3D"/>
</svg>
