<svg width="60" height="60" viewBox="0 0 60 60" fill="none" xmlns="http://www.w3.org/2000/svg">
<path d="M52.9688 29.75H49.6875C49.2916 29.75 48.9688 30.0729 48.9688 30.4688V48.9688H11.0312V11.0312H29.5312C29.9271 11.0312 30.25 10.7084 30.25 10.3125V7.03125C30.25 6.63537 29.9271 6.3125 29.5312 6.3125H8.4375C7.26232 6.3125 6.3125 7.26232 6.3125 8.4375V51.5625C6.3125 52.7377 7.26232 53.6875 8.4375 53.6875H51.5625C52.7377 53.6875 53.6875 52.7377 53.6875 51.5625V30.4688C53.6875 30.0729 53.3646 29.75 52.9688 29.75Z" fill="#FF8509" stroke="#FF8509" stroke-width="0.5"/>
<path d="M20.6036 31.3377L20.6036 31.3378L20.4923 38.3046L20.4923 38.3058C20.4848 38.966 21.0187 39.5078 21.6797 39.5078H21.7032V39.5079L21.7093 39.5077L28.6234 39.3378L28.6234 39.3379L28.6297 39.3376C28.8011 39.329 28.9794 39.2609 29.1104 39.1299L53.4794 14.8137L53.4796 14.8135C53.7588 14.5342 53.7588 14.0771 53.4796 13.7978L53.4795 13.7978L46.1964 6.52049C46.1963 6.52047 46.1963 6.52044 46.1963 6.52042C46.0504 6.37457 45.8671 6.3125 45.6856 6.3125C45.4969 6.3125 45.3191 6.38507 45.1806 6.51488L45.1806 6.51479L45.175 6.52032L20.8117 30.8367L20.8117 30.8367L20.8077 30.8409C20.6795 30.9749 20.6067 31.1523 20.6036 31.3377ZM24.8227 32.8299L45.6856 12.0133L47.9801 14.3027L27.1051 35.1314L24.7872 35.1872L24.8227 32.8299Z" fill="#FF8509" stroke="#FF8509" stroke-width="0.5"/>
</svg>
