<svg width="20" height="20" viewBox="0 0 20 20" fill="none" xmlns="http://www.w3.org/2000/svg">
<path d="M18.6667 11.0223H2.66667V3.5409C2.66589 3.25915 2.72115 2.98005 2.82924 2.71976C2.93733 2.45946 3.09611 2.22313 3.29638 2.02446L3.31304 2.00783C3.6269 1.69521 4.02986 1.48687 4.46688 1.41127C4.9039 1.33568 5.35365 1.39651 5.75471 1.58546C5.37595 2.21365 5.21851 2.95009 5.30743 3.67776C5.39635 4.40543 5.72651 5.08258 6.24546 5.60161L6.70175 6.05677L5.86188 6.89461L6.80463 7.83502L7.6445 6.99723L12.2982 2.35514L13.1381 1.51734L12.1953 0.576887L11.3554 1.41468L10.8991 0.95952C10.3528 0.416091 9.63264 0.081102 8.86416 0.0129275C8.09568 -0.0552471 7.32758 0.147715 6.69371 0.586447C6.0253 0.165374 5.23319 -0.0164064 4.44752 0.0709681C3.66185 0.158343 2.92932 0.509676 2.37029 1.06725L2.35363 1.08388C2.02914 1.40578 1.77189 1.78869 1.59676 2.21044C1.42162 2.63219 1.33209 3.0844 1.33333 3.5409V11.0223H0V12.3523H1.33333V13.6283C1.3333 13.7355 1.35064 13.8421 1.38467 13.9438L2.625 17.6554C2.69119 17.8541 2.81847 18.0269 2.98875 18.1494C3.15904 18.2718 3.36367 18.3376 3.57358 18.3375H4.11108L3.625 20H5.01388L5.5 18.3375H14.1708L14.6708 20H16.0625L15.5625 18.3375H16.4263C16.6362 18.3377 16.8409 18.2719 17.0112 18.1494C17.1815 18.027 17.3088 17.8541 17.375 17.6554L18.6152 13.9438C18.6493 13.8421 18.6666 13.7355 18.6667 13.6283V12.3523H20V11.0223H18.6667ZM7.18833 1.89997C7.55566 1.53435 8.05339 1.32901 8.57231 1.32901C9.09123 1.32901 9.58896 1.53435 9.95629 1.89997L10.4125 2.35514L7.64462 5.11615L7.18833 4.66107C6.82182 4.29464 6.61599 3.79815 6.61599 3.28052C6.61599 2.7629 6.82182 2.26641 7.18833 1.89997ZM17.3333 13.5743L16.1862 17.0074H3.81383L2.66667 13.5743V12.3523H17.3333V13.5743Z" fill="#0B2C3D"/>
</svg>
