<svg width="15" height="15" viewBox="0 0 15 15" fill="none" xmlns="http://www.w3.org/2000/svg">
<path d="M14 8.26673H2V2.65567C1.99942 2.44436 2.04086 2.23504 2.12193 2.03982C2.203 1.84459 2.32208 1.66735 2.47228 1.51834L2.48478 1.50587C2.72018 1.27141 3.0224 1.11515 3.35016 1.05846C3.67792 1.00176 4.01524 1.04738 4.31603 1.1891C4.03196 1.66024 3.91389 2.21257 3.98057 2.75832C4.04726 3.30407 4.29488 3.81193 4.68409 4.20121L5.02631 4.54258L4.39641 5.17095L5.10347 5.87626L5.73338 5.24792L9.22366 1.76635L9.85356 1.13801L9.14647 0.432666L8.51653 1.06101L8.17431 0.71964C7.76458 0.312068 7.22448 0.0608265 6.64812 0.00969561C6.07176 -0.0414353 5.49568 0.110787 5.02028 0.439835C4.51897 0.12403 3.9249 -0.0123048 3.33564 0.0532261C2.74638 0.118757 2.19699 0.382257 1.77772 0.800439L1.76522 0.812908C1.52186 1.05434 1.32892 1.34152 1.19757 1.65783C1.06622 1.97414 0.999066 2.3133 1 2.65567V8.26673H0V9.26425H1V10.2212C0.999978 10.3017 1.01298 10.3815 1.0385 10.4578L1.96875 13.2415C2.01839 13.3906 2.11385 13.5202 2.24156 13.612C2.36928 13.7039 2.52275 13.7532 2.68019 13.7531H3.08331L2.71875 15H3.76041L4.125 13.7531H10.6281L11.0031 15H12.0469L11.6719 13.7531H12.3197C12.4771 13.7533 12.6306 13.7039 12.7584 13.6121C12.8861 13.5202 12.9816 13.3906 13.0312 13.2415L13.9614 10.4578C13.987 10.3815 14 10.3017 14 10.2212V9.26425H15V8.26673H14ZM5.39125 1.42498C5.66675 1.15076 6.04004 0.996759 6.42923 0.996759C6.81842 0.996759 7.19172 1.15076 7.46722 1.42498L7.80937 1.76635L5.73347 3.83711L5.39125 3.4958C5.11637 3.22098 4.96199 2.84861 4.96199 2.46039C4.96199 2.07217 5.11637 1.6998 5.39125 1.42498ZM13 10.1807L12.1396 12.7556H2.86037L2 10.1807V9.26425H13V10.1807Z" fill="#5C727D"/>
</svg>
