<svg width="16" height="15" viewBox="0 0 16 15" fill="none" xmlns="http://www.w3.org/2000/svg">
<path d="M11.75 7.03125H3.3125V3.98438C3.31343 3.67386 3.43719 3.37633 3.65676 3.15676C3.87633 2.93719 4.17386 2.81343 4.48438 2.8125H11.5156C11.8261 2.81343 12.1237 2.93719 12.3432 3.15676C12.5628 3.37633 12.6866 3.67386 12.6875 3.98438V7.03125H11.75Z" stroke="#5C727D" stroke-linecap="round" stroke-linejoin="round"/>
<path d="M1.90625 12.1875V8.90625C1.90772 8.40942 2.10573 7.93336 2.45705 7.58205C2.80836 7.23073 3.28442 7.03272 3.78125 7.03125H12.2188C12.7156 7.03272 13.1916 7.23073 13.543 7.58205C13.8943 7.93336 14.0923 8.40942 14.0938 8.90625V12.1875" stroke="#5C727D" stroke-linecap="round" stroke-linejoin="round"/>
<path d="M1.90625 12.1875V11.9531C1.90679 11.7668 1.98104 11.5883 2.11279 11.4565C2.24453 11.3248 2.42306 11.2505 2.60938 11.25H13.3906C13.5769 11.2505 13.7555 11.3248 13.8872 11.4565C14.019 11.5883 14.0932 11.7668 14.0938 11.9531V12.1875" stroke="#5C727D" stroke-linecap="round" stroke-linejoin="round"/>
<path d="M3.78125 7.03125V6.5625C3.78195 6.31407 3.88094 6.07602 4.05661 5.90036C4.23227 5.72469 4.47032 5.6257 4.71875 5.625H7.0625C7.31093 5.6257 7.54898 5.72469 7.72464 5.90036C7.90031 6.07602 7.9993 6.31407 8 6.5625V7.03125" stroke="#5C727D" stroke-linecap="round" stroke-linejoin="round"/>
<path d="M8 7.03125V6.5625C8.0007 6.31407 8.09969 6.07602 8.27536 5.90036C8.45102 5.72469 8.68907 5.6257 8.9375 5.625H11.2812C11.5297 5.6257 11.7677 5.72469 11.9434 5.90036C12.1191 6.07602 12.2181 6.31407 12.2188 6.5625V7.03125" stroke="#5C727D" stroke-linecap="round" stroke-linejoin="round"/>
</svg>
