<svg width="20" height="21" viewBox="0 0 20 21" fill="none" xmlns="http://www.w3.org/2000/svg">
<path d="M15 9.875H3.75V5.8125C3.75124 5.39848 3.91625 5.00177 4.20901 4.70901C4.50177 4.41625 4.89848 4.25124 5.3125 4.25H14.6875C15.1015 4.25124 15.4982 4.41625 15.791 4.70901C16.0837 5.00177 16.2488 5.39848 16.25 5.8125V9.875H15Z" stroke="#0B2C3D" stroke-linecap="round" stroke-linejoin="round"/>
<path d="M1.875 16.75V12.375C1.87696 11.7126 2.14098 11.0778 2.6094 10.6094C3.07781 10.141 3.71256 9.87696 4.375 9.875H15.625C16.2874 9.87696 16.9222 10.141 17.3906 10.6094C17.859 11.0778 18.123 11.7126 18.125 12.375V16.75" stroke="#0B2C3D" stroke-linecap="round" stroke-linejoin="round"/>
<path d="M1.875 16.75V16.4375C1.87572 16.1891 1.97473 15.951 2.15038 15.7754C2.32604 15.5997 2.56408 15.5007 2.8125 15.5H17.1875C17.4359 15.5007 17.674 15.5997 17.8496 15.7754C18.0253 15.951 18.1243 16.1891 18.125 16.4375V16.75" stroke="#0B2C3D" stroke-linecap="round" stroke-linejoin="round"/>
<path d="M4.375 9.875V9.25C4.37593 8.91876 4.50792 8.60136 4.74214 8.36714C4.97636 8.13292 5.29376 8.00093 5.625 8H8.75C9.08124 8.00093 9.39864 8.13292 9.63286 8.36714C9.86708 8.60136 9.99907 8.91876 10 9.25V9.875" stroke="#0B2C3D" stroke-linecap="round" stroke-linejoin="round"/>
<path d="M10 9.875V9.25C10.0009 8.91876 10.1329 8.60136 10.3671 8.36714C10.6014 8.13292 10.9188 8.00093 11.25 8H14.375C14.7062 8.00093 15.0236 8.13292 15.2579 8.36714C15.4921 8.60136 15.6241 8.91876 15.625 9.25V9.875" stroke="#0B2C3D" stroke-linecap="round" stroke-linejoin="round"/>
</svg>
