<svg width="60" height="60" viewBox="0 0 60 60" fill="none" xmlns="http://www.w3.org/2000/svg">
<path d="M45 52.5C41.5417 52.5 38.5942 51.2817 36.1575 48.845C33.7192 46.4067 32.5 43.4583 32.5 40C32.5 36.5417 33.7192 33.5933 36.1575 31.155C38.5942 28.7183 41.5417 27.5 45 27.5C48.4583 27.5 51.4067 28.7183 53.845 31.155C56.2817 33.5933 57.5 36.5417 57.5 40C57.5 43.4583 56.2817 46.4067 53.845 48.845C51.4067 51.2817 48.4583 52.5 45 52.5ZM43.75 41.25V46.25C43.75 46.5833 43.875 46.875 44.125 47.125C44.375 47.375 44.6667 47.5 45 47.5C45.3333 47.5 45.625 47.375 45.875 47.125C46.125 46.875 46.25 46.5833 46.25 46.25V41.25H51.25C51.5833 41.25 51.875 41.125 52.125 40.875C52.375 40.625 52.5 40.3333 52.5 40C52.5 39.6667 52.375 39.375 52.125 39.125C51.875 38.875 51.5833 38.75 51.25 38.75H46.25V33.75C46.25 33.4167 46.125 33.125 45.875 32.875C45.625 32.625 45.3333 32.5 45 32.5C44.6667 32.5 44.375 32.625 44.125 32.875C43.875 33.125 43.75 33.4167 43.75 33.75V38.75H38.75C38.4167 38.75 38.125 38.875 37.875 39.125C37.625 39.375 37.5 39.6667 37.5 40C37.5 40.3333 37.625 40.625 37.875 40.875C38.125 41.125 38.4167 41.25 38.75 41.25H43.75ZM29.1875 47.5H15C13.625 47.5 12.4483 47.0108 11.47 46.0325C10.49 45.0525 10 43.875 10 42.5V20C10 19.2083 10.1775 18.4583 10.5325 17.75C10.8858 17.0417 11.375 16.4583 12 16L27 4.75C27.875 4.08333 28.875 3.75 30 3.75C31.125 3.75 32.125 4.08333 33 4.75L48 16C48.625 16.4583 49.115 17.0417 49.47 17.75C49.8233 18.4583 50 19.2083 50 20V23.25C49.2083 23 48.3958 22.8125 47.5625 22.6875C46.7292 22.5625 45.875 22.5 45 22.5C40.125 22.5 35.99 24.1975 32.595 27.5925C29.1983 30.9892 27.5 35.125 27.5 40C27.5 41.2917 27.6358 42.5733 27.9075 43.845C28.1775 45.115 28.6042 46.3333 29.1875 47.5Z" fill="#FF8509"/>
</svg>
