<svg width="60" height="60" viewBox="0 0 60 60" fill="none" xmlns="http://www.w3.org/2000/svg">
<mask id="path-1-inside-1_76_400" fill="white">
<path d="M37.5 43.4473L33.75 47.1973V37.5H26.25V56.25H7.5V32.666L5.06836 35.0684L2.43164 32.4316L30 4.83398L57.5684 32.4316L54.9316 35.0684L52.5 32.666V38.9355L48.75 42.6855V28.916L30 10.166L11.25 28.916V52.5H22.5V33.75H37.5V43.4473ZM56.8066 39.9316L59.4434 42.5684L43.125 58.916L35.2441 51.0059L37.8809 48.3691L43.125 53.584L56.8066 39.9316Z"/>
</mask>
<path d="M37.5 43.4473L33.75 47.1973V37.5H26.25V56.25H7.5V32.666L5.06836 35.0684L2.43164 32.4316L30 4.83398L57.5684 32.4316L54.9316 35.0684L52.5 32.666V38.9355L48.75 42.6855V28.916L30 10.166L11.25 28.916V52.5H22.5V33.75H37.5V43.4473ZM56.8066 39.9316L59.4434 42.5684L43.125 58.916L35.2441 51.0059L37.8809 48.3691L43.125 53.584L56.8066 39.9316Z" fill="#FF8509"/>
<path d="M37.5 43.4473L44.5711 50.5183L47.5 47.5894V43.4473H37.5ZM33.75 47.1973H23.75V71.3394L40.8211 54.2683L33.75 47.1973ZM33.75 37.5H43.75V27.5H33.75V37.5ZM26.25 37.5V27.5H16.25V37.5H26.25ZM26.25 56.25V66.25H36.25V56.25H26.25ZM7.5 56.25H-2.5V66.25H7.5V56.25ZM7.5 32.666H17.5V8.7293L0.471916 25.5522L7.5 32.666ZM5.06836 35.0684L-2.00271 42.1394L5.02563 49.1678L12.0964 42.1822L5.06836 35.0684ZM2.43164 32.4316L-4.64318 25.3643L-11.7067 32.4354L-4.63943 39.5027L2.43164 32.4316ZM30 4.83398L37.0748 -2.23333L30 -9.31567L22.9252 -2.23333L30 4.83398ZM57.5684 32.4316L64.6394 39.5027L71.7067 32.4354L64.6432 25.3643L57.5684 32.4316ZM54.9316 35.0684L47.9036 42.1822L54.9744 49.1678L62.0027 42.1394L54.9316 35.0684ZM52.5 32.666L59.5281 25.5522L42.5 8.7293V32.666H52.5ZM52.5 38.9355L59.5711 46.0066L62.5 43.0777V38.9355H52.5ZM48.75 42.6855H38.75V66.8277L55.8211 49.7566L48.75 42.6855ZM48.75 28.916H58.75V24.7739L55.8211 21.8449L48.75 28.916ZM30 10.166L37.0711 3.09495L30 -3.97612L22.9289 3.09495L30 10.166ZM11.25 28.916L4.17893 21.8449L1.25 24.7739V28.916H11.25ZM11.25 52.5H1.25V62.5H11.25V52.5ZM22.5 52.5V62.5H32.5V52.5H22.5ZM22.5 33.75V23.75H12.5V33.75H22.5ZM37.5 33.75H47.5V23.75H37.5V33.75ZM56.8066 39.9316L63.8777 32.8606L56.8142 25.7971L49.7432 32.853L56.8066 39.9316ZM59.4434 42.5684L66.5208 49.6331L73.5792 42.562L66.5144 35.4973L59.4434 42.5684ZM43.125 58.916L36.0408 65.974L43.1182 73.0777L50.2024 65.9807L43.125 58.916ZM35.2441 51.0059L28.1731 43.9348L21.1151 50.9928L28.16 58.0638L35.2441 51.0059ZM37.8809 48.3691L44.9321 41.2783L37.8611 34.2468L30.8098 41.2981L37.8809 48.3691ZM43.125 53.584L36.0738 60.6748L43.1372 67.6988L50.1885 60.6626L43.125 53.584ZM30.4289 36.3762L26.6789 40.1262L40.8211 54.2683L44.5711 50.5183L30.4289 36.3762ZM43.75 47.1973V37.5H23.75V47.1973H43.75ZM33.75 27.5H26.25V47.5H33.75V27.5ZM16.25 37.5V56.25H36.25V37.5H16.25ZM26.25 46.25H7.5V66.25H26.25V46.25ZM17.5 56.25V32.666H-2.5V56.25H17.5ZM0.471916 25.5522L-1.95972 27.9546L12.0964 42.1822L14.5281 39.7798L0.471916 25.5522ZM12.1394 27.9973L9.50271 25.3606L-4.63943 39.5027L-2.00271 42.1394L12.1394 27.9973ZM9.50646 39.499L37.0748 11.9013L22.9252 -2.23333L-4.64318 25.3643L9.50646 39.499ZM22.9252 11.9013L50.4935 39.499L64.6432 25.3643L37.0748 -2.23333L22.9252 11.9013ZM50.4973 25.3606L47.8606 27.9973L62.0027 42.1394L64.6394 39.5027L50.4973 25.3606ZM61.9597 27.9546L59.5281 25.5522L45.4719 39.7798L47.9036 42.1822L61.9597 27.9546ZM42.5 32.666V38.9355H62.5V32.666H42.5ZM45.4289 31.8645L41.6789 35.6145L55.8211 49.7566L59.5711 46.0066L45.4289 31.8645ZM58.75 42.6855V28.916H38.75V42.6855H58.75ZM55.8211 21.8449L37.0711 3.09495L22.9289 17.2371L41.6789 35.9871L55.8211 21.8449ZM22.9289 3.09495L4.17893 21.8449L18.3211 35.9871L37.0711 17.2371L22.9289 3.09495ZM1.25 28.916V52.5H21.25V28.916H1.25ZM11.25 62.5H22.5V42.5H11.25V62.5ZM32.5 52.5V33.75H12.5V52.5H32.5ZM22.5 43.75H37.5V23.75H22.5V43.75ZM27.5 33.75V43.4473H47.5V33.75H27.5ZM49.7356 47.0027L52.3723 49.6394L66.5144 35.4973L63.8777 32.8606L49.7356 47.0027ZM52.366 35.5036L36.0476 51.8513L50.2024 65.9807L66.5208 49.6331L52.366 35.5036ZM50.2092 51.8581L42.3283 43.9479L28.16 58.0638L36.0408 65.974L50.2092 51.8581ZM42.3152 58.0769L44.9519 55.4402L30.8098 41.2981L28.1731 43.9348L42.3152 58.0769ZM30.8296 55.46L36.0738 60.6748L50.1762 46.4931L44.9321 41.2783L30.8296 55.46ZM50.1885 60.6626L63.8701 47.0103L49.7432 32.853L36.0615 46.5053L50.1885 60.6626Z" fill="#FF8509" mask="url(#path-1-inside-1_76_400)"/>
</svg>
