<svg width="26" height="25" viewBox="0 0 26 25" fill="none" xmlns="http://www.w3.org/2000/svg">
<path d="M23.2141 10.4596H22.375V10.4163H13V14.583H18.887C18.0281 17.0085 15.7203 18.7497 13 18.7497C9.54845 18.7497 6.75001 15.9512 6.75001 12.4997C6.75001 9.04811 9.54845 6.24967 13 6.24967C14.5932 6.24967 16.0427 6.85072 17.1464 7.83249L20.0927 4.88613C18.2323 3.15228 15.7438 2.08301 13 2.08301C7.24741 2.08301 2.58334 6.74707 2.58334 12.4997C2.58334 18.2523 7.24741 22.9163 13 22.9163C18.7526 22.9163 23.4167 18.2523 23.4167 12.4997C23.4167 11.8012 23.3448 11.1195 23.2141 10.4596Z" fill="#FFC107"/>
<path d="M3.78436 7.65124L7.20676 10.1611C8.1328 7.86842 10.3755 6.24967 13 6.24967C14.5932 6.24967 16.0427 6.85072 17.1463 7.83249L20.0927 4.88613C18.2323 3.15228 15.7437 2.08301 13 2.08301C8.99895 2.08301 5.52915 4.34186 3.78436 7.65124Z" fill="#FF3D00"/>
<path d="M13 22.9165C15.6906 22.9165 18.1354 21.8868 19.9839 20.2124L16.7599 17.4842C15.7141 18.2764 14.4141 18.7499 13 18.7499C10.2906 18.7499 7.9901 17.0223 7.12344 14.6113L3.72656 17.2285C5.45052 20.602 8.95156 22.9165 13 22.9165Z" fill="#4CAF50"/>
<path d="M23.2141 10.4602H22.375V10.417H13V14.5837H18.887C18.4745 15.7488 17.725 16.7534 16.7583 17.4852C16.7589 17.4847 16.7594 17.4847 16.7599 17.4842L19.9839 20.2123C19.7557 20.4196 23.4167 17.7087 23.4167 12.5003C23.4167 11.8019 23.3448 11.1201 23.2141 10.4602Z" fill="#1976D2"/>
</svg>
