<svg width="13" height="21" viewBox="0 0 13 21" fill="none" xmlns="http://www.w3.org/2000/svg">
<path d="M12.0029 6.00391C12.0029 2.68991 9.31593 0.00390625 6.00293 0.00390625C2.68993 0.00390625 0.00292969 2.68991 0.00292969 6.00391C0.00292969 10.0039 6.00293 17.0039 6.00293 17.0039C6.00293 17.0039 12.0029 10.0039 12.0029 6.00391ZM3.50293 6.00391C3.50293 4.62391 4.62293 3.50391 6.00293 3.50391C7.38293 3.50391 8.50293 4.62391 8.50293 6.00391C8.50293 7.38391 7.38293 8.50391 6.00293 8.50391C4.62293 8.50391 3.50293 7.38391 3.50293 6.00391Z" fill="black" fill-opacity="0.8"/>
<path d="M10.0029 18.0039H2.00293V20.0039H10.0029V18.0039Z" fill="black" fill-opacity="0.8"/>
</svg>
