<svg width="156" height="30" viewBox="0 0 156 30" fill="none" xmlns="http://www.w3.org/2000/svg">
<path d="M58.7 8.59998L61.5 14.2L64.3 8.59998H65.9V17H64.6V10.7L61.9 16.1H61L58.3 10.7V17H57V8.59998H58.7Z" fill="#173257"/>
<path d="M74.3999 15.1H70.1999L69.3999 17H67.8999L71.5999 8.59998H72.9999L76.6999 17H75.1999L74.3999 15.1ZM73.8999 13.8L72.2999 10.1L70.6999 13.8H73.8999Z" fill="#173257"/>
<path d="M84.0998 17L82.5998 14.5C82.4998 14.5 82.3998 14.5 82.1998 14.5H80.1998V17H78.7998V8.59998H82.1998C84.3998 8.59998 85.5998 9.59998 85.5998 11.5C85.5998 12.8 84.9998 13.8 83.8998 14.2L85.7998 17H84.0998ZM82.1998 13.2C83.4998 13.2 84.1998 12.7 84.1998 11.5C84.1998 10.4 83.4998 9.89997 82.1998 9.89997H80.1998V13.2H82.1998Z" fill="#173257"/>
<path d="M93.8998 17L91.0998 13.3L89.6998 14.9V17H88.2998V8.59998H89.6998V12.9L93.6998 8.59998H95.3998L92.1998 12.2L95.6998 17H93.8998Z" fill="#173257"/>
<path d="M103.8 8.59998V9.89997H99.1998V12.2H103.3V13.5H99.1998V15.8H103.9V17H97.7998V8.59998H103.8Z" fill="#173257"/>
<path d="M112.3 8.59998V9.89997H109.6V17H108.2V9.89997H105.6V8.59998H112.3Z" fill="#173257"/>
<path d="M121.1 11.5C121.1 13.4 119.9 14.5 117.8 14.5H115.9V17H114.5V8.59998H117.9C119.9 8.59998 121.1 9.59998 121.1 11.5ZM119.8 11.5C119.8 10.4 119.1 9.89997 117.8 9.89997H115.9V13.2H117.8C119 13.2 119.8 12.6 119.8 11.5Z" fill="#173257"/>
<path d="M124.8 8.59998V15.7H128.4V17H123.3V8.59998H124.8Z" fill="#173257"/>
<path d="M136.2 15.1H132L131.2 17H129.7L133.4 8.59998H134.8L138.5 17H137L136.2 15.1ZM135.7 13.8L134.1 10.1L132.5 13.8H135.7Z" fill="#173257"/>
<path d="M144.1 9.8C142.4 9.8 141.1 11.1 141.1 12.7C141.1 14.3 142.4 15.7 144.1 15.7C144.9 15.7 145.8 15.3 146.4 14.7L147.2 15.6C146.3 16.4 145.1 17 144 17C141.5 17 139.6 15.1 139.6 12.7C139.6 10.3 141.5 8.5 144 8.5C145.2 8.5 146.4 9 147.2 9.8L146.4 10.8C145.8 10.2 144.9 9.8 144.1 9.8Z" fill="#173257"/>
<path d="M155.6 8.59998V9.89997H151V12.2H155.1V13.5H151V15.8H155.7V17H149.6V8.59998H155.6Z" fill="#173257"/>
<path d="M58.4001 20.6V24.3H62.9001V20.6H64.3001V29H62.9001V25.5H58.5001V29H57.1001V20.6H58.4001Z" fill="#173257"/>
<path d="M75.5998 24.8C75.5998 27.2 73.6998 29.1 71.1998 29.1C68.6998 29.1 66.7998 27.2 66.7998 24.8C66.7998 22.4 68.6998 20.6 71.1998 20.6C73.6998 20.6 75.5998 22.4 75.5998 24.8ZM68.0998 24.8C68.0998 26.5 69.4998 27.8 71.0998 27.8C72.6998 27.8 74.0998 26.5 74.0998 24.8C74.0998 23.1 72.7998 21.8 71.0998 21.8C69.3998 21.8 68.0998 23.1 68.0998 24.8Z" fill="#173257"/>
<path d="M79.7 20.6L82.4999 26.2L85.3 20.6H86.9999V29H85.7V22.7L82.9999 28.1H82.0999L79.4 22.7V29H78.0999V20.6C77.9999 20.6 79.7 20.6 79.7 20.6Z" fill="#173257"/>
<path d="M96 20.6V21.9H91.4V24.2H95.5V25.5H91.4V27.8H96.1V29H90V20.6H96Z" fill="#173257"/>
<path d="M101.4 21.9C100.6 21.9 99.9999 22.2 99.9999 22.8C99.9999 24.6 104.5 23.6 104.5 26.7C104.5 28.2 103.2 29.1 101.3 29.1C99.9999 29.1 98.6999 28.6 97.8999 27.8L98.4999 26.6C99.3999 27.4 100.4 27.8 101.3 27.8C102.3 27.8 102.9 27.4 102.9 26.8C102.9 24.9 98.3999 26 98.3999 23C98.3999 21.6 99.5999 20.7 101.5 20.7C102.6 20.7 103.7 21 104.4 21.6L103.8 22.8C103 22.1 102.1 21.9 101.4 21.9Z" fill="#173257"/>
<path d="M3.8 15L15.8 4.9L21.6 9.8L24.5 7.4L15.8 0L0.199999 13.2L0 13.3V30H16.9V26.3H3.8V15Z" fill="#F4752A"/>
<path d="M35.4001 0L26.1001 7.8L22.7001 10.7L21.9001 11.4L21.6001 11.6L19.6001 13.3V30H31.5001V13.3L29.4001 11.5L26.5001 14L27.7001 15V26.3H23.4001V15L25.1001 13.5L28.9001 10.4L35.4001 4.9L47.3001 15V26.3H34.2001V30H51.1001V13.3L35.4001 0Z" fill="#F4752A"/>
</svg>
