<svg width="29" height="29" viewBox="0 0 29 29" fill="none" xmlns="http://www.w3.org/2000/svg">
<path d="M12.75 18.5837C12.75 19.2277 13.2727 19.7503 13.9167 19.7503H23.8333C24.4773 19.7503 25 19.2277 25 18.5837V9.83366C25 9.18966 24.4773 8.66699 23.8333 8.66699H13.9167C13.2727 8.66699 12.75 9.18966 12.75 9.83366V18.5837Z" fill="#03A9F4"/>
<path d="M25 10.4025V9.83373C25 9.58406 24.9201 9.35365 24.7859 9.16406L18.2152 13.2077L13.8157 10.4917L13.4062 11.5837L18.3407 14.5004L25 10.4025Z" fill="#B3E5FC"/>
<path d="M16.25 24.6846L4 22.3512V6.0179L16.25 3.68457V24.6846Z" fill="#0277BD"/>
<path d="M12.876 11.1813C12.2355 10.4376 11.3908 10.0654 10.3513 10.0654C9.24766 10.0654 8.36333 10.4557 7.69483 11.2338C7.02749 12.0138 6.69208 13.0352 6.69208 14.294C6.69208 15.4869 7.02108 16.4605 7.67791 17.2025C8.33474 17.9451 9.18991 18.3167 10.2317 18.3167C11.3051 18.3167 12.1748 17.9363 12.8416 17.1646C13.5083 16.3987 13.8402 15.3895 13.8402 14.1318C13.8402 12.9138 13.5188 11.9303 12.876 11.1813ZM11.6119 16.0953C11.2806 16.5439 10.8308 16.7673 10.2627 16.7673C9.71491 16.7673 9.27158 16.5375 8.92974 16.0749C8.59083 15.617 8.42224 14.9893 8.42224 14.2018C8.42224 13.4225 8.59083 12.7937 8.92974 12.3206C9.27158 11.8481 9.72774 11.6142 10.3035 11.6142C10.8647 11.6142 11.3057 11.8434 11.6259 12.3013C11.9497 12.7651 12.1118 13.4068 12.1118 14.2322C12.1124 15.0284 11.9438 15.6479 11.6119 16.0953Z" fill="url(#paint0_linear_474_1868)"/>
<defs>
<linearGradient id="paint0_linear_474_1868" x1="10.2662" y1="10.0654" x2="10.2662" y2="18.3167" gradientUnits="userSpaceOnUse">
<stop stop-color="white"/>
<stop offset="0.46875" stop-color="white"/>
<stop offset="0.677083" stop-color="white" stop-opacity="0.607843"/>
<stop offset="1" stop-color="white" stop-opacity="0"/>
</linearGradient>
</defs>
</svg>
