<svg width="60" height="60" viewBox="0 0 60 60" fill="none" xmlns="http://www.w3.org/2000/svg">
<mask id="path-1-outside-1_76_410" maskUnits="userSpaceOnUse" x="15.875" y="19.625" width="28" height="38" fill="black">
<rect fill="white" x="15.875" y="19.625" width="28" height="38"/>
<path d="M43.125 56.25H39.375V52.5C39.3735 51.0086 38.7804 49.5787 37.7258 48.5242C36.6713 47.4696 35.2414 46.8765 33.75 46.875H26.25C24.7586 46.8765 23.3287 47.4696 22.2742 48.5242C21.2196 49.5787 20.6265 51.0086 20.625 52.5V56.25H16.875V52.5C16.878 50.0145 17.8667 47.6317 19.6242 45.8742C21.3817 44.1167 23.7645 43.128 26.25 43.125H33.75C36.2355 43.128 38.6183 44.1167 40.3758 45.8742C42.1333 47.6317 43.122 50.0145 43.125 52.5V56.25ZM30 24.375C31.1125 24.375 32.2001 24.7049 33.1251 25.323C34.0501 25.9411 34.7711 26.8196 35.1968 27.8474C35.6226 28.8752 35.734 30.0062 35.5169 31.0974C35.2999 32.1885 34.7641 33.1908 33.9775 33.9775C33.1908 34.7641 32.1885 35.2999 31.0974 35.5169C30.0062 35.734 28.8752 35.6226 27.8474 35.1968C26.8196 34.7711 25.9411 34.0501 25.323 33.1251C24.7049 32.2001 24.375 31.1125 24.375 30C24.375 28.5082 24.9676 27.0774 26.0225 26.0225C27.0774 24.9676 28.5082 24.375 30 24.375ZM30 20.625C28.1458 20.625 26.3332 21.1748 24.7915 22.205C23.2498 23.2351 22.0482 24.6993 21.3386 26.4123C20.6291 28.1254 20.4434 30.0104 20.8051 31.829C21.1669 33.6475 22.0598 35.318 23.3709 36.6291C24.682 37.9402 26.3525 38.8331 28.171 39.1949C29.9896 39.5566 31.8746 39.3709 33.5877 38.6614C35.3007 37.9518 36.7649 36.7502 37.795 35.2085C38.8252 33.6668 39.375 31.8542 39.375 30C39.375 27.5136 38.3873 25.129 36.6291 23.3709C34.871 21.6127 32.4864 20.625 30 20.625Z"/>
</mask>
<path d="M43.125 56.25H39.375V52.5C39.3735 51.0086 38.7804 49.5787 37.7258 48.5242C36.6713 47.4696 35.2414 46.8765 33.75 46.875H26.25C24.7586 46.8765 23.3287 47.4696 22.2742 48.5242C21.2196 49.5787 20.6265 51.0086 20.625 52.5V56.25H16.875V52.5C16.878 50.0145 17.8667 47.6317 19.6242 45.8742C21.3817 44.1167 23.7645 43.128 26.25 43.125H33.75C36.2355 43.128 38.6183 44.1167 40.3758 45.8742C42.1333 47.6317 43.122 50.0145 43.125 52.5V56.25ZM30 24.375C31.1125 24.375 32.2001 24.7049 33.1251 25.323C34.0501 25.9411 34.7711 26.8196 35.1968 27.8474C35.6226 28.8752 35.734 30.0062 35.5169 31.0974C35.2999 32.1885 34.7641 33.1908 33.9775 33.9775C33.1908 34.7641 32.1885 35.2999 31.0974 35.5169C30.0062 35.734 28.8752 35.6226 27.8474 35.1968C26.8196 34.7711 25.9411 34.0501 25.323 33.1251C24.7049 32.2001 24.375 31.1125 24.375 30C24.375 28.5082 24.9676 27.0774 26.0225 26.0225C27.0774 24.9676 28.5082 24.375 30 24.375ZM30 20.625C28.1458 20.625 26.3332 21.1748 24.7915 22.205C23.2498 23.2351 22.0482 24.6993 21.3386 26.4123C20.6291 28.1254 20.4434 30.0104 20.8051 31.829C21.1669 33.6475 22.0598 35.318 23.3709 36.6291C24.682 37.9402 26.3525 38.8331 28.171 39.1949C29.9896 39.5566 31.8746 39.3709 33.5877 38.6614C35.3007 37.9518 36.7649 36.7502 37.795 35.2085C38.8252 33.6668 39.375 31.8542 39.375 30C39.375 27.5136 38.3873 25.129 36.6291 23.3709C34.871 21.6127 32.4864 20.625 30 20.625Z" fill="#FF8509"/>
<path d="M43.125 56.25V56.75H43.625V56.25H43.125ZM39.375 56.25H38.875V56.75H39.375V56.25ZM39.375 52.5H39.875V52.4995L39.375 52.5ZM33.75 46.875L33.7505 46.375H33.75V46.875ZM26.25 46.875V46.375H26.2495L26.25 46.875ZM20.625 52.5L20.125 52.4995V52.5H20.625ZM20.625 56.25V56.75H21.125V56.25H20.625ZM16.875 56.25H16.375V56.75H16.875V56.25ZM16.875 52.5L16.375 52.4994V52.5H16.875ZM26.25 43.125V42.625H26.2494L26.25 43.125ZM33.75 43.125L33.7506 42.625H33.75V43.125ZM43.125 52.5H43.625V52.4994L43.125 52.5ZM24.375 30H23.875H24.375ZM30 20.625V21.125V20.625ZM39.375 30H39.875H39.375ZM43.125 55.75H39.375V56.75H43.125V55.75ZM39.875 56.25V52.5H38.875V56.25H39.875ZM39.875 52.4995C39.8734 50.8757 39.2276 49.3188 38.0794 48.1706L37.3723 48.8777C38.3332 49.8386 38.8736 51.1415 38.875 52.5005L39.875 52.4995ZM38.0794 48.1706C36.9312 47.0224 35.3743 46.3766 33.7505 46.375L33.7495 47.375C35.1085 47.3764 36.4114 47.9168 37.3723 48.8777L38.0794 48.1706ZM33.75 46.375H26.25V47.375H33.75V46.375ZM26.2495 46.375C24.6257 46.3766 23.0688 47.0224 21.9206 48.1706L22.6277 48.8777C23.5886 47.9168 24.8915 47.3764 26.2505 47.375L26.2495 46.375ZM21.9206 48.1706C20.7724 49.3188 20.1266 50.8757 20.125 52.4995L21.125 52.5005C21.1264 51.1415 21.6668 49.8386 22.6277 48.8777L21.9206 48.1706ZM20.125 52.5V56.25H21.125V52.5H20.125ZM20.625 55.75H16.875V56.75H20.625V55.75ZM17.375 56.25V52.5H16.375V56.25H17.375ZM17.375 52.5006C17.3778 50.1475 18.3138 47.8916 19.9777 46.2277L19.2706 45.5206C17.4195 47.3717 16.3781 49.8815 16.375 52.4994L17.375 52.5006ZM19.9777 46.2277C21.6416 44.5638 23.8975 43.6278 26.2506 43.625L26.2494 42.625C23.6315 42.6281 21.1217 43.6695 19.2706 45.5206L19.9777 46.2277ZM26.25 43.625H33.75V42.625H26.25V43.625ZM33.7494 43.625C36.1025 43.6278 38.3584 44.5638 40.0223 46.2277L40.7294 45.5206C38.8783 43.6695 36.3685 42.6281 33.7506 42.625L33.7494 43.625ZM40.0223 46.2277C41.6862 47.8916 42.6222 50.1475 42.625 52.5006L43.625 52.4994C43.6219 49.8815 42.5805 47.3717 40.7294 45.5206L40.0223 46.2277ZM42.625 52.5V56.25H43.625V52.5H42.625ZM30 24.875C31.0136 24.875 32.0045 25.1756 32.8473 25.7387L33.4029 24.9072C32.3956 24.2342 31.2114 23.875 30 23.875V24.875ZM32.8473 25.7387C33.6901 26.3019 34.347 27.1023 34.7349 28.0387L35.6588 27.6561C35.1952 26.5369 34.4101 25.5803 33.4029 24.9072L32.8473 25.7387ZM34.7349 28.0387C35.1228 28.9752 35.2243 30.0057 35.0265 30.9998L36.0073 31.1949C36.2436 30.0068 36.1223 28.7753 35.6588 27.6561L34.7349 28.0387ZM35.0265 30.9998C34.8288 31.994 34.3407 32.9072 33.6239 33.6239L34.331 34.331C35.1876 33.4744 35.771 32.3831 36.0073 31.1949L35.0265 30.9998ZM33.6239 33.6239C32.9072 34.3407 31.994 34.8288 30.9998 35.0265L31.1949 36.0073C32.3831 35.771 33.4744 35.1876 34.331 34.331L33.6239 33.6239ZM30.9998 35.0265C30.0057 35.2243 28.9752 35.1228 28.0387 34.7349L27.6561 35.6588C28.7753 36.1223 30.0068 36.2436 31.1949 36.0073L30.9998 35.0265ZM28.0387 34.7349C27.1023 34.347 26.3019 33.6901 25.7387 32.8473L24.9072 33.4029C25.5803 34.4101 26.5369 35.1952 27.6561 35.6588L28.0387 34.7349ZM25.7387 32.8473C25.1756 32.0045 24.875 31.0136 24.875 30H23.875C23.875 31.2114 24.2342 32.3956 24.9072 33.4029L25.7387 32.8473ZM24.875 30C24.875 28.6408 25.415 27.3372 26.3761 26.3761L25.669 25.669C24.5203 26.8176 23.875 28.3755 23.875 30H24.875ZM26.3761 26.3761C27.3372 25.415 28.6408 24.875 30 24.875V23.875C28.3755 23.875 26.8176 24.5203 25.669 25.669L26.3761 26.3761ZM30 20.125C28.0469 20.125 26.1377 20.7042 24.5137 21.7892L25.0693 22.6207C26.5288 21.6455 28.2447 21.125 30 21.125V20.125ZM24.5137 21.7892C22.8898 22.8743 21.6241 24.4166 20.8767 26.221L21.8006 26.6037C22.4723 24.982 23.6098 23.5959 25.0693 22.6207L24.5137 21.7892ZM20.8767 26.221C20.1293 28.0254 19.9337 30.011 20.3147 31.9265L21.2955 31.7314C20.9531 30.0098 21.1288 28.2254 21.8006 26.6037L20.8767 26.221ZM20.3147 31.9265C20.6958 33.8421 21.6363 35.6016 23.0173 36.9827L23.7244 36.2756C22.4832 35.0344 21.638 33.453 21.2955 31.7314L20.3147 31.9265ZM23.0173 36.9827C24.3984 38.3637 26.1579 39.3042 28.0735 39.6853L28.2686 38.7045C26.547 38.362 24.9656 37.5168 23.7244 36.2756L23.0173 36.9827ZM28.0735 39.6853C29.989 40.0663 31.9746 39.8707 33.779 39.1233L33.3963 38.1994C31.7746 38.8712 29.9902 39.0469 28.2686 38.7045L28.0735 39.6853ZM33.779 39.1233C35.5834 38.3759 37.1257 37.1102 38.2108 35.4863L37.3793 34.9307C36.4041 36.3902 35.018 37.5277 33.3963 38.1994L33.779 39.1233ZM38.2108 35.4863C39.2958 33.8623 39.875 31.9531 39.875 30H38.875C38.875 31.7553 38.3545 33.4712 37.3793 34.9307L38.2108 35.4863ZM39.875 30C39.875 27.381 38.8346 24.8692 36.9827 23.0173L36.2756 23.7244C37.94 25.3888 38.875 27.6462 38.875 30H39.875ZM36.9827 23.0173C35.1308 21.1654 32.619 20.125 30 20.125V21.125C32.3538 21.125 34.6112 22.06 36.2756 23.7244L36.9827 23.0173Z" fill="#FF8509" mask="url(#path-1-outside-1_76_410)"/>
<path d="M56.25 56.4994H56.5V56.2494V26.2494V26.2493C56.4999 25.9406 56.4325 25.6357 56.3026 25.3557C56.1727 25.0757 55.9834 24.8273 55.7477 24.6279L55.5863 24.8187L55.7477 24.6279L31.3727 4.00291C31.3727 4.0029 31.3727 4.0029 31.3727 4.0029C30.989 3.67818 30.5027 3.5 30 3.5C29.4973 3.5 29.011 3.67818 28.6273 4.0029C28.6273 4.0029 28.6273 4.0029 28.6273 4.00291L4.25226 24.6279L4.25225 24.6279C4.01663 24.8273 3.82728 25.0757 3.69736 25.3557C3.56745 25.6357 3.5001 25.9406 3.5 26.2493V26.2494V56.2494V56.4994H3.75H7.5H7.75V56.2494V27.2353L30 8.40811L52.25 27.2353V56.2494V56.4994H52.5H56.25Z" fill="#FF8509" stroke="#FF8509" stroke-width="0.5"/>
</svg>
