<svg width="170" height="46" viewBox="0 0 170 46" fill="none" xmlns="http://www.w3.org/2000/svg">
<path d="M71.8213 26.4414L68.435 15.046H68.3485C68.4702 17.3643 68.5312 18.9107 68.5312 19.6856V26.4414H65.8665V11.9165H69.9262L73.2547 23.0237H73.3124L76.843 11.9165H80.9026V26.4414H78.1225V19.5664C78.1225 19.242 78.1272 18.8677 78.1368 18.4437C78.1464 18.02 78.1897 16.8939 78.2667 15.0659H78.1801L74.5534 26.4414H71.8213Z" fill="#323232"/>
<path d="M84.4429 11.9165H87.4251V26.4414H84.4429V11.9165Z" fill="#323232"/>
<path d="M93.9474 18.3643H94.9095C95.8522 18.3643 96.5481 18.2021 96.9969 17.8775C97.4459 17.5531 97.6704 17.043 97.6704 16.3475C97.6704 15.6588 97.4411 15.1687 96.9826 14.8772C96.5239 14.5858 95.8137 14.44 94.8517 14.44H93.9474V18.3643ZM93.9474 20.8679V26.4414H90.9652V11.9165H95.0633C96.9744 11.9165 98.3885 12.2759 99.3058 12.9945C100.223 13.7132 100.681 14.8043 100.681 16.268C100.681 17.1224 100.454 17.8825 99.9985 18.5481C99.543 19.2137 98.8985 19.7353 98.0648 20.1129C100.181 23.3783 101.56 25.4876 102.201 26.4414H98.8921L95.5348 20.8679H93.9474Z" fill="#323232"/>
<path d="M110.85 20.401C109.907 17.2682 109.376 15.4965 109.258 15.0857C109.139 14.6752 109.054 14.3506 109.003 14.1122C108.791 14.9601 108.185 17.0563 107.185 20.401H110.85ZM112.581 26.4414L111.562 22.9841H106.434L105.414 26.4414H102.201L107.165 11.8569H110.811L115.795 26.4414H112.581Z" fill="#323232"/>
<path d="M120.547 20.1129V23.8981H122.49C123.311 23.8981 123.917 23.7359 124.308 23.4113C124.699 23.0868 124.895 22.59 124.895 21.9211C124.895 20.7156 124.061 20.1129 122.394 20.1129H120.547ZM120.547 17.6689H122.279C123.087 17.6689 123.672 17.5397 124.034 17.2814C124.396 17.0231 124.578 16.5959 124.578 15.9998C124.578 15.4435 124.381 15.0445 123.986 14.8027C123.592 14.5609 122.968 14.44 122.115 14.44H120.547V17.6689ZM117.565 11.9165H121.942C123.936 11.9165 125.384 12.2097 126.285 12.7957C127.186 13.382 127.637 14.3142 127.637 15.5925C127.637 16.4602 127.44 17.1721 127.045 17.7284C126.651 18.2849 126.127 18.6193 125.472 18.7319V18.8313C126.364 19.0367 127.007 19.4208 127.401 19.9837C127.796 20.5468 127.993 21.2951 127.993 22.229C127.993 23.5538 127.529 24.587 126.603 25.3288C125.676 26.0706 124.417 26.4414 122.827 26.4414H117.565V11.9165Z" fill="#323232"/>
<path d="M130.802 11.9165H133.784V26.4414H130.802V11.9165Z" fill="#323232"/>
<path d="M137.324 26.4414V11.9165H140.306V23.8981H146.011V26.4414H137.324Z" fill="#323232"/>
<path d="M148.455 11.9165H151.437V26.4414H148.455V11.9165Z" fill="#323232"/>
<path d="M163.279 22.4084C163.279 23.7198 162.822 24.753 161.908 25.508C160.995 26.2631 159.723 26.6406 158.094 26.6406C156.593 26.6406 155.266 26.3493 154.111 25.7664V22.9051C155.06 23.3422 155.864 23.6502 156.521 23.8291C157.179 24.008 157.78 24.0973 158.325 24.0973C158.979 24.0973 159.481 23.9682 159.83 23.7099C160.18 23.4515 160.355 23.0675 160.355 22.5574C160.355 22.2727 160.278 22.0193 160.124 21.7974C159.97 21.5755 159.744 21.3619 159.446 21.1565C159.148 20.9513 158.54 20.6235 157.623 20.173C156.763 19.7558 156.119 19.3551 155.689 18.9708C155.259 18.5868 154.916 18.1397 154.66 17.6297C154.403 17.1197 154.275 16.5236 154.275 15.8414C154.275 14.5565 154.697 13.5464 155.54 12.8112C156.383 12.076 157.549 11.7084 159.037 11.7084C159.768 11.7084 160.465 11.7978 161.129 11.9766C161.793 12.1555 162.487 12.4073 163.212 12.7317L162.25 15.1261C161.5 14.8081 160.879 14.5863 160.389 14.4604C159.898 14.3346 159.415 14.2716 158.941 14.2716C158.376 14.2716 157.943 14.4075 157.642 14.679C157.34 14.9506 157.19 15.3049 157.19 15.742C157.19 16.0137 157.251 16.2503 157.373 16.4523C157.494 16.6545 157.688 16.8498 157.955 17.0385C158.221 17.2273 158.851 17.5668 159.845 18.0569C161.16 18.706 162.061 19.3568 162.548 20.0091C163.036 20.6615 163.279 21.4613 163.279 22.4084Z" fill="#323232"/>
<path d="M68.5963 29.8092V31.451H66.4621V29.8092H65.9158V33.8066H66.4621V31.9251H68.5963V33.8066H69.1426V29.8092H68.5963Z" fill="#FF8509"/>
<path d="M68.5963 29.8092V31.451H66.4621V29.8092H65.9158V33.8066H66.4621V31.9251H68.5963V33.8066H69.1426V29.8092H68.5963Z" stroke="#FF8509" stroke-width="0.183032" stroke-miterlimit="10"/>
<path d="M78.8571 33.4229C78.3885 33.4229 77.9895 33.2216 77.7369 32.8592C77.5621 32.6139 77.4569 32.2222 77.4569 31.8205C77.4569 30.8101 77.9895 30.1961 78.8708 30.1961C79.2771 30.1961 79.634 30.3525 79.8994 30.6481C80.1236 30.9053 80.2637 31.3409 80.2637 31.804C80.2637 32.7979 79.7182 33.4229 78.8571 33.4229ZM78.8644 29.744C77.6884 29.744 76.8977 30.5758 76.8977 31.8205C76.8977 33.0266 77.7095 33.875 78.8644 33.875C80.0257 33.875 80.8237 33.0376 80.8237 31.815C80.8237 30.5813 80.033 29.744 78.8644 29.744Z" fill="#FF8509"/>
<path d="M78.8571 33.4229C78.3885 33.4229 77.9895 33.2216 77.7369 32.8592C77.5621 32.6139 77.4569 32.2222 77.4569 31.8205C77.4569 30.8101 77.9895 30.1961 78.8708 30.1961C79.2771 30.1961 79.634 30.3525 79.8994 30.6481C80.1236 30.9053 80.2637 31.3409 80.2637 31.804C80.2637 32.7979 79.7182 33.4229 78.8571 33.4229ZM78.8644 29.744C77.6884 29.744 76.8977 30.5758 76.8977 31.8205C76.8977 33.0266 77.7095 33.875 78.8644 33.875C80.0257 33.875 80.8237 33.0376 80.8237 31.815C80.8237 30.5813 80.033 29.744 78.8644 29.744V29.744Z" stroke="#FF8509" stroke-width="0.183032" stroke-miterlimit="10"/>
<path d="M91.7489 29.8092L90.7624 32.5895L90.6708 32.8521C90.6297 32.9638 90.594 33.0644 90.5519 33.2319H90.5381C90.5034 33.1084 90.4823 33.0525 90.4402 32.9244L90.3496 32.6398L89.3768 29.8092H88.5577V33.8066H89.0821V30.4068H89.0968L90.2654 33.8066H90.755L91.9383 30.4626H91.9521V33.8066H92.4765V29.8092H91.7489Z" fill="#FF8509"/>
<path d="M91.7489 29.8092L90.7624 32.5895L90.6708 32.8521C90.6297 32.9638 90.594 33.0644 90.5519 33.2319H90.5381C90.5034 33.1084 90.4823 33.0525 90.4402 32.9244L90.3496 32.6398L89.3768 29.8092H88.5577V33.8066H89.0821V30.4068H89.0968L90.2654 33.8066H90.755L91.9383 30.4626H91.9521V33.8066H92.4765V29.8092H91.7489Z" stroke="#FF8509" stroke-width="0.183032" stroke-miterlimit="10"/>
<path d="M100.939 33.3381V31.9754H103.207V31.5068H100.939V30.2842H103.367V29.8092H100.393V33.8066H103.458V33.3381H100.939Z" fill="#FF8509"/>
<path d="M100.939 33.3381V31.9754H103.207V31.5068H100.939V30.2842H103.367V29.8092H100.393V33.8066H103.458V33.3381H100.939Z" stroke="#FF8509" stroke-width="0.183032" stroke-miterlimit="10"/>
<path d="M113.803 31.793C113.558 31.653 113.32 31.5807 112.711 31.4471C111.941 31.2796 111.732 31.1451 111.732 30.8046C111.732 30.4358 112.095 30.2125 112.676 30.2125C113.299 30.2125 113.62 30.4587 113.677 30.9776L114.202 30.9382C114.174 30.1961 113.586 29.744 112.662 29.744C111.795 29.744 111.214 30.1851 111.214 30.844C111.214 31.1451 111.339 31.4022 111.592 31.5917C111.795 31.7482 112.025 31.8314 112.557 31.955C113.166 32.0996 113.299 32.1389 113.481 32.2341C113.684 32.3284 113.796 32.5077 113.796 32.7192C113.796 33.1328 113.397 33.4009 112.774 33.4009C112.277 33.4009 111.851 33.1996 111.682 32.8866C111.619 32.775 111.592 32.6688 111.57 32.4794L111.052 32.5242C111.074 33.3561 111.724 33.875 112.739 33.875C113.264 33.875 113.712 33.7359 113.971 33.4787C114.195 33.2609 114.321 32.9708 114.321 32.6752C114.321 32.3009 114.132 31.9879 113.803 31.793Z" fill="#FF8509"/>
<path d="M113.803 31.793C113.558 31.653 113.32 31.5807 112.711 31.4471C111.941 31.2796 111.732 31.1451 111.732 30.8046C111.732 30.4358 112.095 30.2125 112.676 30.2125C113.299 30.2125 113.62 30.4587 113.677 30.9776L114.202 30.9382C114.174 30.1961 113.586 29.744 112.662 29.744C111.795 29.744 111.214 30.1851 111.214 30.844C111.214 31.1451 111.339 31.4022 111.592 31.5917C111.795 31.7482 112.025 31.8314 112.557 31.955C113.166 32.0996 113.299 32.1389 113.481 32.2341C113.684 32.3284 113.796 32.5077 113.796 32.7192C113.796 33.1328 113.397 33.4009 112.774 33.4009C112.277 33.4009 111.851 33.1996 111.682 32.8866C111.619 32.775 111.592 32.6688 111.57 32.4794L111.052 32.5242C111.074 33.3561 111.724 33.875 112.739 33.875C113.264 33.875 113.712 33.7359 113.971 33.4787C114.195 33.2609 114.321 32.9708 114.321 32.6752C114.321 32.3009 114.132 31.9879 113.803 31.793Z" stroke="#FF8509" stroke-width="0.183032" stroke-miterlimit="10"/>
<path d="M28.6502 19.7514V25.3751L20.3083 20.8799L13.2928 16.5917V41.7759L7.53749 38.7815V7.43209L6.89807 7.03711V39.12L13.2928 42.547L13.6125 42.7539L13.9323 42.547V17.7201L19.6688 21.2373L20.3083 21.6323L28.6502 26.1274L28.9699 26.3155L29.2897 26.1274V20.1464L28.6502 19.7514Z" fill="#323232"/>
<path d="M13.6116 42.3715L13.467 42.2773L13.2931 42.1839L12.9728 42.0119L10.3042 40.5815L12.9728 41.9698L13.2931 42.1363L13.6116 42.302V42.3715ZM28.9689 25.9426L28.8124 25.8501L28.6504 25.7632L28.3301 25.5902L20.6473 21.45L20.4689 21.3539L20.327 21.2661L20.1559 21.1608L20.327 21.2533L20.6473 21.4253L28.3301 25.5655L28.6504 25.7376L28.9689 25.9096V25.9426ZM29.3075 19.7799L29.2892 19.7689L29.2745 19.7597L28.9698 19.5712L28.9588 19.5648L28.6669 19.3836L28.6513 19.3744H28.6504V19.3735L28.3612 19.1951L28.3301 19.1759V24.838L20.629 20.6886L20.4679 20.6017L13.5283 16.359L12.9728 16.0195V41.2468L7.85795 38.5864V7.25223L6.57764 6.46153V39.3112L13.1265 42.82L13.6125 43.1348L14.0948 42.8218L14.0984 42.82L14.2522 42.7202V18.2918L19.3487 21.4162L19.5006 21.5086L19.669 21.6129L19.9893 21.8106L20.0067 21.8216L20.1403 21.904L20.327 22.0046L20.6473 22.1776L28.493 26.4056L28.9698 26.6866L29.4521 26.4029L29.6095 26.3095V19.9666L29.3075 19.7799Z" fill="#323232"/>
<path d="M29.2897 18.7535V19.5059L28.6502 19.1109L7.53758 6.79144L6.89807 6.39655V6.02033L7.25544 5.85111L7.89486 6.246L28.6502 18.3585L29.2897 18.7535Z" fill="#323232"/>
<path d="M28.6504 18.7348L28.6687 18.7467L28.7968 18.8254L28.6687 18.7503L28.6504 18.7403L28.3484 18.5637L28.3301 18.5527L7.83232 6.59244L7.70603 6.51923L7.22283 6.22088L7.23472 6.21539L7.73349 6.52289L7.84239 6.58695L28.3301 18.5426L28.3484 18.5536L28.482 18.6314L28.6504 18.7348ZM29.3084 18.3889L29.2892 18.377L28.8115 18.0823L28.6687 17.999L28.6504 17.988L28.3484 17.8123L28.3301 17.8013L8.47202 6.21265L8.15629 6.0287L8.06294 5.97379L7.84513 5.83926L7.82866 5.8292L7.52025 5.63793L7.2759 5.48693L6.57764 5.81638V6.57505L7.37566 7.06832L7.85795 7.34928L28.3301 19.2949L28.482 19.3836L28.6504 19.488L28.8655 19.6207L28.8783 19.6289L29.1839 19.8165L29.2892 19.8824L29.42 19.9629L29.6095 20.0801V18.5746L29.3084 18.3889Z" fill="#323232"/>
<path d="M28.9699 11.529L13.0672 2.40706L6.89807 5.99925L7.53749 6.39423L13.0483 3.12171L28.669 12.0745V18.9793L28.9887 19.1674L29.3084 19.3555V11.7359L28.9699 11.529Z" fill="#323232"/>
<path d="M7.84513 5.83901L7.54039 6.02021L7.52025 6.00832L7.82866 5.82895L9.63061 4.77926L7.84513 5.83901ZM29.1373 11.2568L13.0661 2.03835L6.57764 5.81613V6.17854L6.89794 6.37621L7.53398 6.76973L7.83232 6.59219L7.84239 6.5867L8.1572 6.40001L8.47202 6.2124L13.0515 3.49345L28.3301 12.2506L28.3484 12.2607V19.1638L28.3813 19.183L28.6504 19.3413L28.6797 19.3578L28.6943 19.3669L28.9954 19.5435L29.0055 19.55L29.2562 19.6973L29.2892 19.7165L29.6095 19.905L29.6287 19.916V11.5569L29.1373 11.2568Z" fill="#323232"/>
<path d="M19.669 38.7812L14.2522 41.599L13.9319 41.7664L13.9136 41.7756V17.7197L13.9319 17.7307L19.669 21.2376V38.7812ZM13.2931 16.5913V42.5471L13.6125 42.7539L13.9319 42.5471L14.2522 42.375L20.327 39.1198V20.8797L13.2931 16.5913Z" fill="#323232"/>
<path d="M19.3487 21.4162V38.5864L14.2522 41.2376L14.2339 41.2468V18.29L14.2522 18.301L19.3487 21.4162ZM20.0067 38.9278L19.9893 38.9369V21.0565L14.1881 17.5121L20.0067 21.0593V38.9278ZM13.6134 42.3715V42.2919L13.9319 42.1263L14.2522 41.9597L17.5486 40.2447L14.2522 42.0109L13.9319 42.183L13.7809 42.2635L13.6134 42.3715ZM20.629 20.6886L13.5283 16.359L12.9728 16.0204V42.7202L13.1265 42.82L13.6125 43.1348L14.0948 42.8218L14.0984 42.82L20.6473 39.3112V20.6996L20.629 20.6886Z" fill="#323232"/>
<path d="M29.2897 25.3929V19.7505L28.6501 20.1454V26.1264L28.9699 26.3145L29.2897 26.1264V25.3929Z" fill="#323232"/>
<path d="M28.9699 26.6855L28.3298 26.309V19.9662L29.61 19.1756V25.3923H28.9704V25.942L29.1272 25.8497L29.4521 26.4018L28.9699 26.6855Z" fill="#323232"/>
<path d="M29.2897 18.9991L28.6501 19.3941V20.1465L29.2897 19.7515V18.9991Z" fill="#323232"/>
<path d="M28.3298 20.7207V19.2154L29.1213 18.7266L29.458 19.2715L29.1215 19.4794L29.458 20.0239L28.3298 20.7207Z" fill="#323232"/>
<path d="M28.9699 11.5297L28.6501 11.7178V19.375L28.9699 19.1869L29.2897 18.9988V12.094L28.9699 11.5297Z" fill="#323232"/>
<path d="M28.3298 19.9336V11.5331L28.8075 11.2522L29.1322 11.8043L28.9704 11.8996V12.0925H29.6099V19.1806L28.3298 19.9336Z" fill="#323232"/>
<path d="M29.2884 19.7514V25.3751L37.6303 20.8799L44.6458 16.5917V41.7759L50.4011 38.7815V7.43209L51.0405 7.03711V39.12L44.6458 42.547L44.326 42.7539L44.0063 42.547V17.7201L38.2698 21.2373L37.6303 21.6323L29.2884 26.1274L28.9687 26.3155L28.6489 26.1274V20.1464L29.2884 19.7514Z" fill="#323232"/>
<path d="M44.327 42.302L44.6455 42.1363L44.9658 41.9698L47.6344 40.5815L44.9658 42.0119L44.6455 42.1839L44.4716 42.2773L44.327 42.3715V42.302ZM28.9697 25.9096L29.2882 25.7376L29.6085 25.5655L37.2913 21.4253L37.6116 21.2533L37.7827 21.1608L37.6116 21.2661L37.4697 21.3539L37.2913 21.45L29.6085 25.5902L29.2882 25.7632L29.1262 25.8501L28.9697 25.9426V25.9096ZM28.3291 19.9666V26.3095L28.4865 26.4029L28.9688 26.6866L29.4456 26.4056L37.2913 22.1776L37.6116 22.0046L37.7983 21.904L37.9319 21.8216L37.9493 21.8106L38.2696 21.6129L38.438 21.5086L38.5899 21.4162L43.6864 18.2918V42.7202L43.8402 42.82L43.8438 42.8218L44.3261 43.1348L44.8121 42.82L51.361 39.3112V6.46153L50.0806 7.25223V38.5864L44.9658 41.2468V16.0195L44.4103 16.359L37.4706 20.6017L37.3096 20.6886L29.6085 24.838V19.1759L29.5774 19.1951L29.2882 19.3735V19.3744H29.2873L29.2717 19.3836L28.9798 19.5648L28.9688 19.5712L28.6641 19.7597L28.6494 19.7689L28.6311 19.7799L28.3291 19.9666Z" fill="#323232"/>
<path d="M28.6489 18.7535V19.5059L29.2884 19.1109L50.401 6.79144L51.0405 6.39655V6.02033L50.6832 5.85111L50.0437 6.246L29.2884 18.3585L28.6489 18.7535Z" fill="#323232"/>
<path d="M29.4566 18.6314L29.5902 18.5536L29.6085 18.5426L50.0962 6.58695L50.2051 6.52289L50.7039 6.21539L50.7158 6.22088L50.2326 6.51923L50.1063 6.59244L29.6085 18.5527L29.5902 18.5637L29.2882 18.7403L29.2699 18.7503L29.1418 18.8254L29.2699 18.7467L29.2882 18.7348L29.4566 18.6314ZM28.3291 18.5746V20.0801L28.5185 19.9629L28.6494 19.8824L28.7547 19.8165L29.0603 19.6289L29.0731 19.6207L29.2882 19.488L29.4566 19.3836L29.6085 19.2949L50.0806 7.34928L50.5629 7.06832L51.361 6.57505V5.81638L50.6627 5.48692L50.4183 5.63793L50.1099 5.82919L50.0935 5.83926L49.8756 5.97379L49.7823 6.0287L49.4666 6.21265L29.6085 17.8013L29.5902 17.8123L29.2882 17.988L29.2699 17.999L29.1271 18.0823L28.6494 18.377L28.6302 18.3889L28.3291 18.5746Z" fill="#323232"/>
<path d="M28.9686 11.529L44.8714 2.40706L51.0405 5.99925L50.4011 6.39423L44.8902 3.12171L29.2695 12.0745V18.9793L28.9498 19.1674L28.6301 19.3555V11.7359L28.9686 11.529Z" fill="#323232"/>
<path d="M48.3079 4.77926L50.1099 5.82895L50.4183 6.00832L50.3981 6.02022L50.0934 5.83901L48.3079 4.77926ZM28.3098 11.5569V19.916L28.329 19.905L28.6493 19.7165L28.6823 19.6973L28.933 19.55L28.9431 19.5435L29.2442 19.3669L29.2588 19.3578L29.2881 19.3413L29.5572 19.183L29.5901 19.1638V12.2607L29.6084 12.2506L44.887 3.49346L49.4665 6.2124L49.7813 6.40001L50.0961 6.5867L50.1062 6.59219L50.4045 6.76973L51.0406 6.37621L51.3609 6.17854V5.81613L44.8724 2.03835L28.8013 11.2568L28.3098 11.5569Z" fill="#323232"/>
<path d="M38.2696 21.2376L44.0067 17.7307L44.025 17.7197V41.7756L44.0067 41.7664L43.6864 41.599L38.2696 38.7812V21.2376ZM37.6116 20.8797V39.1198L43.6864 42.375L44.0067 42.5471L44.3261 42.7539L44.6455 42.5471V16.5913L37.6116 20.8797Z" fill="#323232"/>
<path d="M43.6864 18.301L43.7047 18.29V41.2468L43.6864 41.2376L38.5899 38.5864V21.4162L43.6864 18.301ZM37.9319 21.0593L43.7505 17.5121L37.9493 21.0565V38.9369L37.9319 38.9278V21.0593ZM44.1577 42.2635L44.0067 42.183L43.6864 42.0109L40.39 40.2447L43.6864 41.9597L44.0067 42.1263L44.3252 42.2919V42.3715L44.1577 42.2635ZM37.2913 20.6996V39.3112L43.8401 42.82L43.8438 42.8218L44.3261 43.1348L44.8121 42.82L44.9658 42.7202V16.0204L44.4103 16.359L37.3096 20.6886L37.2913 20.6996Z" fill="#323232"/>
<path d="M28.6489 25.3929V19.7505L29.2884 20.1454V26.1264L28.9687 26.3145L28.6489 26.1264V25.3929Z" fill="#323232"/>
<path d="M28.9687 26.6855L29.6087 26.309V19.9662L28.3286 19.1756V25.3923H28.9681V25.942L28.8114 25.8497L28.4865 26.4018L28.9687 26.6855Z" fill="#323232"/>
<path d="M28.6489 18.9991L29.2884 19.3941V20.1465L28.6489 19.7515V18.9991Z" fill="#323232"/>
<path d="M29.6087 20.7207V19.2154L28.8173 18.7266L28.4806 19.2715L28.817 19.4794L28.4806 20.0239L29.6087 20.7207Z" fill="#323232"/>
<path d="M28.9687 11.5297L29.2884 11.7178V19.375L28.9687 19.1869L28.6489 18.9988V12.094L28.9687 11.5297Z" fill="#323232"/>
<path d="M29.6086 19.9336V11.5331L29.131 11.2522L28.8062 11.8043L28.968 11.8996V12.0925H28.3286V19.1806L29.6086 19.9336Z" fill="#323232"/>
</svg>
