<svg width="130" height="105" viewBox="0 0 130 105" fill="none" xmlns="http://www.w3.org/2000/svg">
<path d="M101.432 38.5C95.8081 38.5 90.31 40.4501 85.6335 44.1036C80.9569 47.7572 77.312 52.9501 75.1597 59.0258C73.0073 65.1014 72.4442 71.7869 73.5414 78.2368C74.6387 84.6866 77.3471 90.6112 81.3242 95.2613C85.3012 99.9114 90.3683 103.078 95.8846 104.361C101.401 105.644 107.119 104.986 112.315 102.469C117.511 99.9524 121.953 95.6906 125.077 90.2227C128.202 84.7548 129.87 78.3262 129.87 71.75L130 67C130 49.3631 124.008 32.4486 113.342 19.9774C102.676 7.50623 88.2092 0.5 73.125 0.5V19.5C78.4623 19.4832 83.7495 20.7037 88.6809 23.091C93.6122 25.4782 98.0899 28.9848 101.855 33.408C103.318 35.1158 104.668 36.9514 105.893 38.899C104.439 38.633 102.952 38.4905 101.441 38.4905L101.432 38.5ZM28.3075 38.5C22.6831 38.5 17.185 40.4501 12.5085 44.1036C7.83195 47.7572 4.18704 52.9501 2.03467 59.0258C-0.117692 65.1014 -0.680849 71.7869 0.416418 78.2368C1.51368 84.6866 4.2221 90.6112 8.19915 95.2613C12.1762 99.9114 17.2433 103.078 22.7596 104.361C28.276 105.644 33.9938 104.986 39.1901 102.469C44.3863 99.9524 48.8277 95.6906 51.9524 90.2227C55.0772 84.7548 56.745 78.3262 56.745 71.75L56.875 67C56.875 49.3631 50.8828 32.4486 40.2167 19.9774C29.5506 7.50623 15.0842 0.5 0 0.5V19.5C5.3373 19.4832 10.6245 20.7037 15.5558 23.091C20.4872 25.4782 24.9649 28.9848 28.73 33.408C30.1934 35.1158 31.5433 36.9514 32.7681 38.899C31.3137 38.633 29.8269 38.4905 28.3075 38.4905V38.5Z" fill="#134456" fill-opacity="0.8"/>
</svg>
