<svg width="130" height="105" viewBox="0 0 130 105" fill="none" xmlns="http://www.w3.org/2000/svg">
<path d="M28.5675 38.5C34.1919 38.5 39.69 40.4501 44.3665 44.1036C49.0431 47.7572 52.688 52.9501 54.8403 59.0258C56.9927 65.1014 57.5558 71.7869 56.4586 78.2368C55.3613 84.6866 52.6529 90.6112 48.6758 95.2613C44.6988 99.9114 39.6317 103.078 34.1154 104.361C28.599 105.644 22.8812 104.986 17.6849 102.469C12.4887 99.9524 8.04734 95.6906 4.92258 90.2227C1.79783 84.7548 0.13 78.3262 0.13 71.75L0 67C0 49.3631 5.99217 32.4486 16.6583 19.9774C27.3244 7.50623 41.7908 0.5 56.875 0.5V19.5C51.5377 19.4832 46.2505 20.7037 41.3191 23.091C36.3878 25.4782 31.9101 28.9848 28.145 33.408C26.6816 35.1158 25.3317 36.9514 24.1069 38.899C25.5613 38.633 27.0481 38.4905 28.5594 38.4905L28.5675 38.5ZM101.692 38.5C107.317 38.5 112.815 40.4501 117.492 44.1036C122.168 47.7572 125.813 52.9501 127.965 59.0258C130.118 65.1014 130.681 71.7869 129.584 78.2368C128.486 84.6866 125.778 90.6112 121.801 95.2613C117.824 99.9114 112.757 103.078 107.24 104.361C101.724 105.644 96.0062 104.986 90.8099 102.469C85.6137 99.9524 81.1723 95.6906 78.0476 90.2227C74.9228 84.7548 73.255 78.3262 73.255 71.75L73.125 67C73.125 49.3631 79.1172 32.4486 89.7833 19.9774C100.449 7.50623 114.916 0.5 130 0.5V19.5C124.663 19.4832 119.376 20.7037 114.444 23.091C109.513 25.4782 105.035 28.9848 101.27 33.408C99.8066 35.1158 98.4567 36.9514 97.2319 38.899C98.6863 38.633 100.173 38.4905 101.692 38.4905V38.5Z" fill="#134456" fill-opacity="0.8"/>
</svg>
