<svg width="35" height="35" viewBox="0 0 35 35" fill="none" xmlns="http://www.w3.org/2000/svg">
<g clip-path="url(#clip0_0_3581)">
<path d="M27.3438 4.375C25.8933 4.375 24.5023 4.95117 23.4768 5.97676C22.4512 7.00235 21.875 8.39335 21.875 9.84375C21.875 10.1338 21.7598 10.412 21.5546 10.6172C21.3495 10.8223 21.0713 10.9375 20.7812 10.9375C20.4912 10.9375 20.213 10.8223 20.0079 10.6172C19.8027 10.412 19.6875 10.1338 19.6875 9.84375C19.6875 8.32949 20.1365 6.84923 20.9778 5.59017C21.8191 4.3311 23.0148 3.34978 24.4138 2.7703C25.8128 2.19082 27.3522 2.0392 28.8374 2.33462C30.3226 2.63003 31.6868 3.35922 32.7575 4.42997C33.8283 5.50071 34.5575 6.86493 34.8529 8.35009C35.1483 9.83526 34.9967 11.3747 34.4172 12.7737C33.8377 14.1727 32.8564 15.3684 31.5973 16.2097C30.3383 17.051 28.858 17.5 27.3438 17.5H1.09375C0.803669 17.5 0.52547 17.3848 0.320352 17.1797C0.115234 16.9745 0 16.6963 0 16.4063C0 16.1162 0.115234 15.838 0.320352 15.6329C0.52547 15.4277 0.803669 15.3125 1.09375 15.3125H27.3438C28.7942 15.3125 30.1852 14.7363 31.2107 13.7107C32.2363 12.6852 32.8125 11.2942 32.8125 9.84375C32.8125 8.39335 32.2363 7.00235 31.2107 5.97676C30.1852 4.95117 28.7942 4.375 27.3438 4.375ZM12.0312 6.5625C11.4511 6.5625 10.8947 6.79297 10.4845 7.20321C10.0742 7.61344 9.84375 8.16984 9.84375 8.75C9.84375 9.04008 9.72852 9.31828 9.5234 9.5234C9.31828 9.72852 9.04008 9.84375 8.75 9.84375C8.45992 9.84375 8.18172 9.72852 7.9766 9.5234C7.77148 9.31828 7.65625 9.04008 7.65625 8.75C7.65625 7.88471 7.91284 7.03885 8.39357 6.31938C8.8743 5.59992 9.55758 5.03916 10.357 4.70803C11.1564 4.3769 12.0361 4.29026 12.8848 4.45907C13.7334 4.62788 14.513 5.04456 15.1248 5.65641C15.7367 6.26827 16.1534 7.04782 16.3222 7.89648C16.491 8.74515 16.4044 9.62482 16.0732 10.4242C15.7421 11.2237 15.1813 11.907 14.4619 12.3877C13.7424 12.8684 12.8965 13.125 12.0312 13.125H1.09375C0.803669 13.125 0.52547 13.0098 0.320352 12.8047C0.115234 12.5995 0 12.3213 0 12.0313C0 11.7412 0.115234 11.463 0.320352 11.2579C0.52547 11.0527 0.803669 10.9375 1.09375 10.9375H12.0312C12.6114 10.9375 13.1678 10.707 13.578 10.2968C13.9883 9.88656 14.2188 9.33016 14.2188 8.75C14.2188 8.16984 13.9883 7.61344 13.578 7.20321C13.1678 6.79297 12.6114 6.5625 12.0312 6.5625ZM0 20.7813C0 20.4912 0.115234 20.213 0.320352 20.0079C0.52547 19.8027 0.803669 19.6875 1.09375 19.6875H23.0606C24.3586 19.6875 25.6274 20.0724 26.7066 20.7935C27.7858 21.5146 28.6269 22.5395 29.1236 23.7386C29.6203 24.9378 29.7502 26.2573 29.497 27.5303C29.2438 28.8033 28.6188 29.9726 27.701 30.8904C26.7832 31.8082 25.6139 32.4332 24.3409 32.6864C23.0679 32.9396 21.7484 32.8097 20.5493 32.313C19.3501 31.8163 18.3252 30.9751 17.6041 29.8959C16.883 28.8167 16.4981 27.5479 16.4981 26.25C16.4981 25.9599 16.6134 25.6817 16.8185 25.4766C17.0236 25.2715 17.3018 25.1563 17.5919 25.1563C17.882 25.1563 18.1602 25.2715 18.3653 25.4766C18.5704 25.6817 18.6856 25.9599 18.6856 26.25C18.6856 27.1153 18.9422 27.9612 19.4229 28.6806C19.9037 29.4001 20.587 29.9608 21.3864 30.292C22.1858 30.6231 23.0655 30.7098 23.9141 30.5409C24.7628 30.3721 25.5424 29.9555 26.1542 29.3436C26.7661 28.7317 27.1828 27.9522 27.3516 27.1035C27.5204 26.2549 27.4337 25.3752 27.1026 24.5758C26.7715 23.7763 26.2107 23.0931 25.4912 22.6123C24.7718 22.1316 23.9259 21.875 23.0606 21.875H1.09375C0.803669 21.875 0.52547 21.7598 0.320352 21.5547C0.115234 21.3495 0 21.0713 0 20.7813Z" fill="#0B2C3D"/>
</g>
<defs>
<clipPath id="clip0_0_3581">
<rect width="35" height="35" fill="white"/>
</clipPath>
</defs>
</svg>
