<svg width="35" height="35" viewBox="0 0 35 35" fill="none" xmlns="http://www.w3.org/2000/svg">
<path d="M2.9165 7.65609C2.9165 6.39907 3.41585 5.19354 4.3047 4.3047C5.19354 3.41585 6.39907 2.9165 7.65609 2.9165H24.4269C25.6839 2.9165 26.8895 3.41585 27.7783 4.3047C28.6672 5.19354 29.1665 6.39907 29.1665 7.65609V11.6811C28.4346 11.605 27.6952 11.6523 26.979 11.8211V10.2082H5.104V24.4269C5.104 25.8357 6.24734 26.979 7.65609 26.979H19.3009L18.6578 28.0932C18.4648 28.4267 18.3269 28.7891 18.2494 29.1665H7.65609C6.39907 29.1665 5.19354 28.6672 4.3047 27.7783C3.41585 26.8895 2.9165 25.6839 2.9165 24.4269V7.65609ZM7.65609 5.104C6.97923 5.104 6.3301 5.37288 5.85149 5.85149C5.37288 6.3301 5.104 6.97923 5.104 7.65609V8.02067H26.979V7.65609C26.979 6.97923 26.7101 6.3301 26.2315 5.85149C25.7529 5.37288 25.1038 5.104 24.4269 5.104H7.65609ZM28.958 13.1248C27.9854 13.0336 27.0071 13.2237 26.1394 13.6725C25.2718 14.1214 24.5513 14.81 24.0638 15.6565C23.573 16.5057 23.3373 17.4784 23.3849 18.4581C23.4325 19.4378 23.7614 20.383 24.3321 21.1807L19.9207 28.8223C19.6594 29.3095 19.598 29.8792 19.7494 30.4109C19.9009 30.9426 20.2533 31.3944 20.7321 31.6708C21.2109 31.9471 21.7784 32.0263 22.3145 31.8915C22.8507 31.7567 23.3133 31.4185 23.6044 30.9486L28.0232 23.2923C29.0341 23.3841 30.0495 23.1724 30.9395 22.6842C31.8295 22.196 32.5537 21.4536 33.0196 20.5517C33.4855 19.6498 33.6719 18.6295 33.555 17.6211C33.438 16.6128 33.0231 15.6622 32.3632 14.8909L29.9569 19.0588C29.847 19.2559 29.699 19.4291 29.5216 19.5685C29.3441 19.7078 29.1407 19.8105 28.9232 19.8705C28.7057 19.9306 28.4784 19.9467 28.2546 19.9181C28.0308 19.8895 27.8149 19.8166 27.6195 19.7038C27.4241 19.5909 27.2531 19.4404 27.1164 19.2608C26.9797 19.0813 26.8801 18.8764 26.8233 18.658C26.7666 18.4396 26.7538 18.2121 26.7858 17.9887C26.8178 17.7654 26.8939 17.5506 27.0096 17.3569L29.4159 13.189C29.2643 13.1607 29.1115 13.1393 28.958 13.1248ZM15.025 13.4792C15.1222 13.5851 15.1975 13.7091 15.2467 13.8441C15.2959 13.9791 15.318 14.1225 15.3118 14.266C15.3056 14.4096 15.2711 14.5505 15.2104 14.6807C15.1497 14.811 15.0639 14.928 14.958 15.025L11.4623 18.229L14.958 21.433C15.1718 21.6291 15.2991 21.9021 15.3117 22.192C15.3242 22.4819 15.2211 22.7649 15.025 22.9788C14.829 23.1927 14.5559 23.3199 14.266 23.3325C13.9761 23.3451 13.6931 23.242 13.4792 23.0459L9.10421 19.0355C8.99237 18.933 8.90306 18.8084 8.84197 18.6695C8.78087 18.5307 8.74932 18.3807 8.74932 18.229C8.74932 18.0773 8.78087 17.9273 8.84197 17.7885C8.90306 17.6496 8.99237 17.525 9.10421 17.4225L13.4792 13.4121C13.5851 13.315 13.7091 13.2397 13.8441 13.1905C13.9791 13.1413 14.1225 13.1191 14.266 13.1254C14.4096 13.1316 14.5505 13.1661 14.6807 13.2268C14.811 13.2875 14.928 13.3733 15.025 13.4792ZM19.333 23.0459L22.2788 20.345C21.8045 18.9709 21.8004 17.478 22.2671 16.1013L19.333 13.4121C19.2271 13.315 19.1031 13.2397 18.9681 13.1906C18.8331 13.1414 18.6897 13.1193 18.5462 13.1255C18.4026 13.1317 18.2617 13.1662 18.1315 13.2269C18.0012 13.2876 17.8842 13.3733 17.7871 13.4792C17.69 13.5851 17.6147 13.7091 17.5656 13.8441C17.5164 13.9791 17.4943 14.1225 17.5005 14.266C17.5067 14.4096 17.5412 14.5505 17.6019 14.6807C17.6626 14.8109 17.7483 14.928 17.8542 15.025L21.3498 18.229L17.8542 21.433C17.6403 21.6291 17.5131 21.9021 17.5005 22.192C17.4879 22.4819 17.591 22.7649 17.7871 22.9788C17.9832 23.1927 18.2563 23.3199 18.5462 23.3325C18.8361 23.3451 19.1191 23.242 19.333 23.0459Z" fill="#0B2C3D"/>
</svg>
