<svg width="16" height="26" viewBox="0 0 16 26" fill="none" xmlns="http://www.w3.org/2000/svg">
<path d="M15.5039 8.25488C15.5039 4.11238 12.1452 0.754883 8.00391 0.754883C3.86266 0.754883 0.503906 4.11238 0.503906 8.25488C0.503906 13.2549 8.00391 22.0049 8.00391 22.0049C8.00391 22.0049 15.5039 13.2549 15.5039 8.25488ZM4.87891 8.25488C4.87891 6.52988 6.27891 5.12988 8.00391 5.12988C9.72891 5.12988 11.1289 6.52988 11.1289 8.25488C11.1289 9.97988 9.72891 11.3799 8.00391 11.3799C6.27891 11.3799 4.87891 9.97988 4.87891 8.25488Z" fill="#FFC589"/>
<path d="M13.0039 23.2549H3.00391V25.7549H13.0039V23.2549Z" fill="#FFC589"/>
</svg>
