<svg width="32" height="33" viewBox="0 0 32 33" fill="none" xmlns="http://www.w3.org/2000/svg">
<path fill-rule="evenodd" clip-rule="evenodd" d="M14.6326 8.83924C15.4139 9.70528 15.1662 10.6864 14.4754 11.6174C14.3116 11.8381 14.1228 12.0556 13.8948 12.2952C13.7853 12.4102 13.7 12.4967 13.5215 12.6754C13.1161 13.0812 12.7753 13.4222 12.4991 13.6983C12.3652 13.8322 13.2796 15.6595 15.0543 17.4359C16.828 19.2114 18.6552 20.1264 18.7897 19.9918L19.8114 18.9696C20.374 18.4064 20.672 18.1347 21.0814 17.8661C21.9325 17.3077 22.8609 17.1559 23.6439 17.8561C26.2004 19.6848 27.6471 20.807 28.3559 21.5434C29.7383 22.9798 29.5571 25.1908 28.3637 26.4521C27.9499 26.8895 27.4252 27.4145 26.8055 28.012C23.0568 31.7628 15.1452 29.4802 9.08185 23.4108C3.01713 17.3402 0.735754 9.42785 4.47662 5.68497C5.14821 5.00283 5.36965 4.78151 6.02372 4.13703C7.24149 2.93712 9.55451 2.74923 10.9606 4.13821C11.7002 4.86882 12.8793 6.38594 14.6326 8.83924ZM21.6962 20.855L20.6743 21.8774C18.9374 23.6153 15.9793 22.1339 13.1693 19.3212C10.3574 16.5064 8.87761 13.5495 10.6151 11.8121C10.891 11.5363 11.2314 11.1957 11.6365 10.7902C11.7999 10.6266 11.8747 10.5508 11.9644 10.4565C12.0867 10.328 12.1872 10.2151 12.2676 10.1153C10.7138 7.95081 9.65752 6.59835 9.0881 6.03585C8.79403 5.74535 8.13555 5.79884 7.89381 6.03703C7.24907 6.67232 7.03715 6.88413 6.36826 7.56348C3.96251 9.97055 5.80419 16.3579 10.9668 21.5256C16.1279 26.6917 22.5143 28.5343 24.9383 26.1092C25.5484 25.5208 26.0456 25.0233 26.4282 24.6189C26.7047 24.3266 26.7542 23.7236 26.4361 23.3931C25.9063 22.8426 24.6093 21.8314 22.3697 20.2231C22.2065 20.3545 22.0058 20.5451 21.6962 20.855ZM18.2067 3.25942C23.9711 3.95813 28.5418 8.52887 29.2406 14.2933L26.6066 14.7323C26.0981 10.0891 22.4109 6.4019 17.7677 5.89333L18.2067 3.25942ZM17.3283 8.52952C20.8504 8.84453 23.6554 11.6496 23.9705 15.1716L21.3281 15.612C21.216 13.2109 19.2891 11.284 16.8879 11.1719L17.3283 8.52952Z" fill="#071C1F"/>
</svg>
