<svg width="32" height="33" viewBox="0 0 32 33" fill="none" xmlns="http://www.w3.org/2000/svg">
<path d="M28.0131 25.0317C29.9205 23.3317 31.0006 21.0657 31.0006 18.7143C31.0006 16.2153 29.8307 13.8782 27.7064 12.1331C25.6389 10.4352 22.9022 9.5 20.0002 9.5C17.0982 9.5 14.3616 10.4352 12.2944 12.1332C10.1701 13.8782 9.00024 16.2153 9.00024 18.7143C9.00024 21.2133 10.1701 23.5504 12.2944 25.2956C14.3616 26.9936 17.0982 27.9287 20.0002 27.9287C20.3869 27.9287 20.776 27.9116 21.1618 27.8777L21.8209 28.449C24.0917 30.4167 26.9956 31.4999 30.0002 31.5H31.0002V29.3714L30.7074 29.0786C29.552 27.9198 28.6364 26.5446 28.0131 25.0317ZM23.1308 26.9375L21.8082 25.7912L21.3672 25.8452C20.9137 25.9007 20.4572 25.9285 20.0002 25.9286C15.0377 25.9286 11.0002 22.6922 11.0002 18.7143C11.0002 14.7364 15.0377 11.5 20.0002 11.5C24.9627 11.5 29.0002 14.7363 29.0002 18.7143C29.0002 20.6962 28.0115 22.5464 26.2161 23.9242L25.6402 24.3661L25.9059 25.1183C26.4505 26.6545 27.251 28.0876 28.2736 29.3569C26.3693 29.039 24.5898 28.2018 23.1308 26.9375Z" fill="#071C1F"/>
<path d="M3.76181 20.3423C4.69789 19.1573 5.43285 17.8266 5.93731 16.4033L6.20106 15.6549L5.62562 15.2133C3.93262 13.9141 3.00024 12.1705 3.00024 10.3036C3.00024 6.55206 6.81331 3.5 11.5002 3.5C14.9482 3.5 17.9232 5.15188 19.2551 7.51875C19.5024 7.50675 19.7507 7.5 20.0002 7.5C20.5014 7.5 20.9979 7.52431 21.4899 7.57294C20.9752 6.2395 20.0813 5.02225 18.8524 4.01288C16.8797 2.39244 14.269 1.5 11.5002 1.5C8.73149 1.5 6.12074 2.39244 4.14799 4.01288C2.11812 5.68031 1.00024 7.91437 1.00024 10.3036C1.00024 12.5411 2.02224 14.697 3.82837 16.3188C3.23896 17.7372 2.37772 19.0266 1.29318 20.1143L1.00024 20.4072V22.5H2.00024C3.84944 22.4998 5.6732 22.0691 7.32718 21.2422C7.14581 20.5548 7.03955 19.8497 7.01024 19.1394C6.00635 19.7277 4.90678 20.1349 3.76181 20.3423Z" fill="#071C1F"/>
</svg>
