<svg width="35" height="36" viewBox="0 0 35 36" fill="none" xmlns="http://www.w3.org/2000/svg">
<path d="M26.2544 13.1309C26.2544 8.29794 22.3359 4.38086 17.5044 4.38086C12.6729 4.38086 8.75439 8.29794 8.75439 13.1309C8.75439 18.9642 17.5044 29.1725 17.5044 29.1725C17.5044 29.1725 26.2544 18.9642 26.2544 13.1309ZM13.8586 13.1309C13.8586 11.1184 15.4919 9.48503 17.5044 9.48503C19.5169 9.48503 21.1502 11.1184 21.1502 13.1309C21.1502 15.1434 19.5169 16.7767 17.5044 16.7767C15.4919 16.7767 13.8586 15.1434 13.8586 13.1309Z" fill="#071C1F"/>
<path d="M23.3378 30.6309H11.6711V33.5475H23.3378V30.6309Z" fill="#071C1F"/>
</svg>
