<svg width="33" height="33" viewBox="0 0 33 33" fill="none" xmlns="http://www.w3.org/2000/svg">
<g clip-path="url(#clip0_0_3569)">
<path d="M1.56667 12.2333L0.94668 11.3653C0.666363 11.5656 0.5 11.8888 0.5 12.2333H1.56667ZM16.5 1.56667L17.12 0.698684C16.7491 0.433772 16.2509 0.433772 15.88 0.698684L16.5 1.56667ZM31.4333 12.2333H32.5C32.5 11.8888 32.3336 11.5656 32.0533 11.3653L31.4333 12.2333ZM5.83333 16.5V15.4333H4.76667V16.5H5.83333ZM27.1667 16.5H28.2333V15.4333H27.1667V16.5ZM2.63333 32.5V12.2333H0.5V32.5H2.63333ZM2.18665 13.1013L17.12 2.43465L15.88 0.698684L0.94668 11.3653L2.18665 13.1013ZM15.88 2.43465L30.8134 13.1013L32.0533 11.3653L17.12 0.698684L15.88 2.43465ZM30.3667 12.2333V32.5H32.5V12.2333H30.3667ZM6.9 32.5V16.5H4.76667V32.5H6.9ZM5.83333 17.5667H27.1667V15.4333H5.83333V17.5667ZM26.1 16.5V32.5H28.2333V16.5H26.1ZM5.83333 23.9667H27.1667V21.8333H5.83333V23.9667ZM13.3 28.2333H19.7V26.1H13.3V28.2333Z" fill="#0B2C3D"/>
</g>
<defs>
<clipPath id="clip0_0_3569">
<rect width="32" height="32" fill="white" transform="translate(0.5 0.5)"/>
</clipPath>
</defs>
</svg>
