<svg width="36" height="35" viewBox="0 0 36 35" fill="none" xmlns="http://www.w3.org/2000/svg">
<path d="M17.9942 27.7227C18.2587 27.7227 18.5142 27.8187 18.7134 27.9927C18.9127 28.1667 19.0421 28.407 19.0777 28.6691L19.0879 28.8179V31.0054C19.0875 31.2824 18.9819 31.5489 18.7926 31.7511C18.6033 31.9533 18.3443 32.0762 18.068 32.0949C17.7916 32.1136 17.5185 32.0267 17.3036 31.8518C17.0888 31.677 16.9484 31.4271 16.9106 31.1527L16.9004 31.0054V28.8179C16.9004 28.5278 17.0156 28.2496 17.2208 28.0445C17.4259 27.8394 17.7041 27.7241 17.9942 27.7241V27.7227ZM26.7762 24.701L28.3221 26.2468C28.4266 26.3477 28.51 26.4683 28.5674 26.6018C28.6247 26.7352 28.655 26.8787 28.6563 27.0239C28.6576 27.1691 28.63 27.3132 28.5751 27.4476C28.5202 27.5821 28.439 27.7042 28.3364 27.807C28.2337 27.9097 28.1116 27.991 27.9772 28.046C27.8429 28.1011 27.6988 28.1288 27.5536 28.1276C27.4084 28.1264 27.2649 28.0963 27.1314 28.0391C26.9979 27.9818 26.8772 27.8986 26.7762 27.7941L25.2304 26.2483C25.0311 26.0421 24.9207 25.7659 24.9231 25.4791C24.9254 25.1923 25.0403 24.9179 25.243 24.7151C25.4457 24.5122 25.72 24.397 26.0068 24.3944C26.2935 24.3918 26.5699 24.5019 26.7762 24.701ZM10.7594 24.701C10.9642 24.9061 11.0792 25.1841 11.0792 25.4739C11.0792 25.7638 10.9642 26.0418 10.7594 26.2468L9.21208 27.7956C9.00474 27.9888 8.7305 28.094 8.44715 28.089C8.16379 28.084 7.89344 27.9692 7.69304 27.7688C7.49265 27.5684 7.37786 27.298 7.37286 27.0147C7.36786 26.7313 7.47304 26.4571 7.66624 26.2498L9.21208 24.7025C9.41715 24.4977 9.69515 24.3826 9.98499 24.3826C10.2748 24.3826 10.5528 24.4977 10.7579 24.7025L10.7594 24.701ZM18 9.44247C20.1369 9.44247 22.1863 10.2914 23.6974 11.8024C25.2084 13.3134 26.0573 15.3628 26.0573 17.4998C26.0573 19.6367 25.2084 21.6861 23.6974 23.1971C22.1863 24.7082 20.1369 25.5571 18 25.5571C15.8631 25.5571 13.8137 24.7082 12.3026 23.1971C10.7916 21.6861 9.9427 19.6367 9.9427 17.4998C9.9427 15.3628 10.7916 13.3134 12.3026 11.8024C13.8137 10.2914 15.8631 9.44247 18 9.44247ZM18 11.63C17.2292 11.63 16.4659 11.7818 15.7537 12.0768C15.0416 12.3718 14.3945 12.8041 13.8494 13.3492C13.3044 13.8943 12.872 14.5413 12.577 15.2535C12.282 15.9656 12.1302 16.7289 12.1302 17.4998C12.1302 18.2706 12.282 19.0339 12.577 19.746C12.872 20.4582 13.3044 21.1053 13.8494 21.6503C14.3945 22.1954 15.0416 22.6278 15.7537 22.9227C16.4659 23.2177 17.2292 23.3696 18 23.3696C19.5568 23.3696 21.0498 22.7511 22.1506 21.6503C23.2514 20.5495 23.8698 19.0565 23.8698 17.4998C23.8698 15.943 23.2514 14.45 22.1506 13.3492C21.0498 12.2484 19.5568 11.63 18 11.63ZM31.4896 16.4323C31.7667 16.4324 32.0334 16.5376 32.2359 16.7268C32.4384 16.916 32.5616 17.175 32.5804 17.4515C32.5993 17.7279 32.5126 18.0013 32.3377 18.2162C32.1628 18.4312 31.9129 18.5718 31.6383 18.6096L31.4896 18.6198H29.3021C29.025 18.6197 28.7582 18.5144 28.5557 18.3252C28.3532 18.136 28.2301 17.877 28.2112 17.6006C28.1923 17.3241 28.2791 17.0508 28.454 16.8358C28.6288 16.6208 28.8788 16.4802 29.1533 16.4425L29.3021 16.4323H31.4896ZM6.69791 16.39C6.977 16.3871 7.24662 16.4911 7.45155 16.6806C7.65648 16.8701 7.78123 17.1307 7.80024 17.4092C7.81925 17.6876 7.73109 17.9628 7.55381 18.1784C7.37653 18.394 7.12355 18.5336 6.84666 18.5687L6.69791 18.5775H4.51041C4.23329 18.5774 3.96654 18.4721 3.76405 18.2829C3.56156 18.0937 3.43843 17.8347 3.41954 17.5583C3.40065 17.2818 3.48741 17.0085 3.66229 16.7935C3.83717 16.5785 4.08713 16.438 4.36166 16.4002L4.51041 16.39H6.69791ZM9.08957 7.10039L9.21208 7.20539L10.7579 8.75122C10.9541 8.94614 11.0692 9.20815 11.08 9.4845C11.0908 9.76085 10.9965 10.031 10.816 10.2406C10.6356 10.4503 10.3825 10.5838 10.1076 10.6142C9.83276 10.6447 9.55654 10.57 9.33457 10.405L9.21208 10.2985L7.66624 8.75268C7.47004 8.55777 7.35496 8.29576 7.34417 8.01941C7.33339 7.74305 7.42769 7.47288 7.6081 7.26326C7.78851 7.05364 8.04164 6.92015 8.31651 6.88966C8.59139 6.85917 8.86761 6.93395 9.08957 7.09893V7.10039ZM28.3221 7.20539C28.5077 7.39067 28.6206 7.63647 28.6401 7.898C28.6596 8.15953 28.5846 8.41938 28.4285 8.63018L28.3221 8.75268L26.7762 10.2985C26.5808 10.4924 26.3195 10.6055 26.0444 10.6152C25.7692 10.6249 25.5006 10.5305 25.292 10.3508C25.0834 10.1711 24.9503 9.9194 24.9191 9.64588C24.888 9.37236 24.9611 9.09715 25.1239 8.87518L25.229 8.75268L26.7748 7.20539C26.8764 7.10375 26.997 7.02312 27.1297 6.96811C27.2625 6.91311 27.4047 6.88479 27.5484 6.88479C27.6921 6.88479 27.8344 6.91311 27.9671 6.96811C28.0999 7.02312 28.2205 7.10375 28.3221 7.20539ZM18 2.90185C18.2643 2.90186 18.5197 2.99758 18.7188 3.1713C18.918 3.34502 19.0476 3.585 19.0835 3.84685L19.0937 3.9956V6.1831C19.0933 6.46009 18.9878 6.7266 18.7985 6.92881C18.6092 7.13102 18.3502 7.25388 18.0738 7.27257C17.7975 7.29127 17.5243 7.20441 17.3095 7.02954C17.0947 6.85466 16.9542 6.6048 16.9164 6.33039L16.9062 6.18164V3.99414C16.9062 3.70406 17.0215 3.42586 17.2266 3.22074C17.4317 3.01562 17.7099 2.90039 18 2.90039V2.90185Z" fill="#212121"/>
</svg>
