<svg width="65" height="75" viewBox="0 0 65 75" fill="none" xmlns="http://www.w3.org/2000/svg">
<path d="M30.5877 21.496L36.7118 23.5448C36.9198 23.6066 37.1059 23.7538 37.2412 23.9637C37.3765 24.1735 37.4534 24.4343 37.46 24.7053C37.46 25.3644 36.9984 25.9089 36.4308 25.9089H32.4135C31.9806 25.9073 31.552 25.8003 31.1508 25.5937C30.5595 25.2784 29.8779 25.3501 29.4243 25.8802L27.2802 28.3875C27.1811 28.4977 27.0955 28.6262 27.0263 28.7686C26.9378 28.953 26.8789 29.1578 26.853 29.3712C26.8271 29.5845 26.8347 29.8023 26.8754 30.012C26.9161 30.2216 26.9891 30.4189 27.0901 30.5926C27.1912 30.7663 27.3183 30.9128 27.4642 31.0238C28.6515 31.9286 29.981 32.491 31.3584 32.6715V35.2074C31.3584 36.4683 32.242 37.4999 33.3186 37.4999H35.2787C36.3563 37.4999 37.2399 36.4683 37.2399 35.2074V32.6858C40.9559 32.17 43.7668 28.2442 43.2771 23.6594C42.9216 20.3641 40.7426 17.7421 38.023 16.8252L31.899 14.7763C31.691 14.7146 31.5049 14.5673 31.3696 14.3575C31.2343 14.1476 31.1574 13.8869 31.1508 13.6158C31.1508 12.9567 31.6123 12.4123 32.1799 12.4123H36.1972C36.6316 12.4131 37.0619 12.5202 37.4645 12.7275C38.0546 13.0427 38.7374 12.9711 39.191 12.4409L41.335 9.93362C41.4309 9.82576 41.5135 9.70018 41.5799 9.5611C41.6692 9.37681 41.7288 9.17189 41.7553 8.95817C41.7819 8.74445 41.7748 8.52618 41.7345 8.31595C41.6942 8.10573 41.6215 7.90773 41.5206 7.73339C41.4197 7.55904 41.2926 7.41182 41.1466 7.30021C39.9588 6.39548 38.629 5.833 37.2512 5.65254V3.1137C37.2512 1.85287 36.3687 0.821289 35.2911 0.821289H33.331C32.2533 0.821289 31.3708 1.85287 31.3708 3.1137V5.63535C27.6594 6.15114 24.8428 10.0769 25.3325 14.6617C25.6869 17.9571 27.8727 20.579 30.5877 21.496ZM63.7878 47.83C62.4562 46.297 60.3799 46.3973 58.9806 47.83L48.5537 58.4181C47.2738 59.7218 45.6808 60.4297 44.0399 60.424H30.6938C30.2149 60.424 29.7557 60.1824 29.4171 59.7525C29.0785 59.3226 28.8883 58.7395 28.8883 58.1316C28.8883 57.5236 29.0785 56.9405 29.4171 56.5106C29.7557 56.0807 30.2149 55.8391 30.6938 55.8391H39.5284C41.3226 55.8391 42.9939 54.2774 43.2805 52.028C43.3158 51.7697 43.3332 51.5079 43.3324 51.2457C43.3306 50.0312 42.9494 48.8673 42.2724 48.0093C41.5954 47.1514 40.6779 46.6695 39.7214 46.6695H21.6662C18.6212 46.6705 15.669 48.0004 13.3044 50.4362L8.05712 55.8391H1.80552C1.32666 55.8391 0.867424 56.0807 0.528824 56.5106C0.190224 56.9405 0 57.5236 0 58.1316L0 71.886C0 72.494 0.190224 73.0771 0.528824 73.507C0.867424 73.9369 1.32666 74.1784 1.80552 74.1784H42.0651C43.7055 74.1801 45.2974 73.4726 46.5789 72.1726L63.6445 54.8362C64.055 54.4193 64.3888 53.8937 64.6228 53.296C64.8567 52.6983 64.985 52.0429 64.9988 51.3757C65.0125 50.7085 64.9114 50.0456 64.7024 49.4331C64.4934 48.8207 64.1817 48.2736 63.7889 47.83H63.7878Z" fill="#0B2C3D"/>
</svg>
