<svg width="35" height="35" viewBox="0 0 35 35" fill="none" xmlns="http://www.w3.org/2000/svg">
<path d="M32.0249 24.7119C31.4048 24.4225 30.6331 24.0625 29.2185 24.0625C27.8039 24.0625 27.0322 24.4226 26.4121 24.7119C25.8802 24.9601 25.46 25.1562 24.5307 25.1562C23.6013 25.1562 23.1813 24.9602 22.6494 24.7119C22.0294 24.4226 21.2577 24.0625 19.8432 24.0625C18.4286 24.0625 17.657 24.4227 17.0369 24.7119C16.505 24.9601 16.085 25.1562 15.1558 25.1562C14.2265 25.1562 13.8065 24.9602 13.2747 24.7119C12.6547 24.4226 11.883 24.0625 10.4686 24.0625C9.05406 24.0625 8.28235 24.4227 7.66233 24.7119C7.13043 24.9601 6.71036 25.1562 5.78115 25.1562C4.85194 25.1562 4.43187 24.9602 3.89997 24.7119C3.27995 24.4227 2.50824 24.0625 1.09375 24.0625V26.25C2.02296 26.25 2.44303 26.4461 2.97493 26.6943C3.59495 26.9836 4.36666 27.3438 5.78115 27.3438C7.19564 27.3438 7.96735 26.9836 8.58737 26.6943C9.11928 26.4461 9.53935 26.25 10.4686 26.25C11.3978 26.25 11.8178 26.4461 12.3496 26.6943C12.9696 26.9836 13.7413 27.3438 15.1558 27.3438C16.5702 27.3438 17.342 26.9836 17.962 26.6943C18.4939 26.4461 18.914 26.25 19.8432 26.25C20.7723 26.25 21.1925 26.4461 21.7244 26.6943C22.3445 26.9836 23.1161 27.3438 24.5307 27.3438C25.9453 27.3438 26.717 26.9836 27.3371 26.6943C27.869 26.4461 28.2892 26.25 29.2185 26.25C30.1478 26.25 30.568 26.4461 31.0998 26.6943C31.72 26.9837 32.4917 27.3438 33.9062 27.3438V25.1562C32.977 25.1562 32.5568 24.9602 32.0249 24.7119Z" fill="#0B2C3D"/>
<path d="M29.2185 30.625C27.8039 30.625 27.0322 30.9851 26.4121 31.2744C25.8802 31.5226 25.46 31.7188 24.5307 31.7188C23.6013 31.7188 23.1813 31.5227 22.6494 31.2744C22.0294 30.9851 21.2577 30.625 19.8432 30.625C18.4286 30.625 17.657 30.9852 17.0369 31.2744C16.505 31.5226 16.085 31.7188 15.1558 31.7188C14.2265 31.7188 13.8065 31.5227 13.2747 31.2744C12.6547 30.9851 11.883 30.625 10.4686 30.625C9.05406 30.625 8.28235 30.9852 7.66233 31.2744C7.13043 31.5226 6.71036 31.7188 5.78115 31.7188C4.85194 31.7188 4.43187 31.5227 3.89997 31.2744C3.27995 30.9852 2.50824 30.625 1.09375 30.625V32.8125C2.02296 32.8125 2.44303 33.0086 2.97493 33.2568C3.59495 33.5461 4.36666 33.9062 5.78115 33.9062C7.19564 33.9062 7.96735 33.5461 8.58737 33.2568C9.11928 33.0086 9.53935 32.8125 10.4686 32.8125C11.3978 32.8125 11.8178 33.0086 12.3496 33.2568C12.9696 33.5461 13.7413 33.9062 15.1558 33.9062C16.5702 33.9062 17.342 33.5461 17.962 33.2568C18.4939 33.0086 18.914 32.8125 19.8432 32.8125C20.7723 32.8125 21.1925 33.0086 21.7244 33.2568C22.3445 33.5461 23.1161 33.9062 24.5307 33.9062C25.9453 33.9062 26.717 33.5461 27.3371 33.2568C27.869 33.0086 28.2892 32.8125 29.2185 32.8125C30.1478 32.8125 30.568 33.0086 31.0998 33.2568C31.72 33.5462 32.4917 33.9062 33.9062 33.9062V31.7188C32.977 31.7188 32.5568 31.5227 32.0249 31.2744C31.4048 30.9851 30.6331 30.625 29.2185 30.625Z" fill="#0B2C3D"/>
<path d="M16.9531 18.5938H26.7969V22.4219H28.9844V7.92135C28.9835 7.25745 29.1849 6.60904 29.5617 6.06245L32.9777 1.09375H30.3231L27.7591 4.82316C27.1311 5.73417 26.7954 6.81485 26.7969 7.92135V10.9375H16.9531V7.92135C16.9523 7.25745 17.1537 6.60904 17.5305 6.06245L20.9465 1.09375H18.2918L15.7279 4.82316C15.0998 5.73417 14.7642 6.81485 14.7656 7.92135V22.4219H16.9531V18.5938ZM16.9531 13.125H26.7969V16.4062H16.9531V13.125Z" fill="#0B2C3D"/>
</svg>
