<svg width="65" height="65" viewBox="0 0 65 65" fill="none" xmlns="http://www.w3.org/2000/svg">
<g clip-path="url(#clip0_0_2779)">
<path d="M59.5832 34.3057C59.3456 34.3071 59.11 34.2616 58.8901 34.1717C58.6701 34.0819 58.47 33.9495 58.3013 33.7821L32.4999 7.96269L6.6985 33.7821C6.35309 34.0779 5.90879 34.2325 5.45437 34.2149C4.99996 34.1974 4.5689 34.009 4.24734 33.6875C3.92578 33.3659 3.7374 32.9348 3.71985 32.4804C3.7023 32.026 3.85687 31.5817 4.15266 31.2363L31.236 4.15297C31.5743 3.81669 32.0319 3.62793 32.5089 3.62793C32.9859 3.62793 33.4435 3.81669 33.7818 4.15297L60.8652 31.2363C61.1136 31.4898 61.2819 31.8109 61.3489 32.1594C61.4158 32.508 61.3786 32.8685 61.2418 33.196C61.1051 33.5236 60.8748 33.8035 60.5798 34.0009C60.2848 34.1982 59.9381 34.3043 59.5832 34.3057Z" fill="#0B2C3D"/>
<path d="M32.4999 14.0654L10.8333 35.8043V57.7779C10.8333 58.7357 11.2137 59.6542 11.8909 60.3314C12.5681 61.0086 13.4866 61.389 14.4444 61.389H27.0833V43.3335H37.9166V61.389H50.5555C51.5132 61.389 52.4317 61.0086 53.1089 60.3314C53.7861 59.6542 54.1666 58.7357 54.1666 57.7779V35.6779L32.4999 14.0654Z" fill="#0B2C3D"/>
</g>
<defs>
<clipPath id="clip0_0_2779">
<rect width="65" height="65" fill="white"/>
</clipPath>
</defs>
</svg>
